<?xml version="1.0" encoding="iso-8859-1"?>
<!-- Generator: Adobe Illustrator 19.2.0, SVG Export Plug-In . SVG Version: 6.00 Build 0)  -->
<svg version="1.1" xmlns="http://www.w3.org/2000/svg" xmlns:xlink="http://www.w3.org/1999/xlink" x="0px" y="0px"
	 viewBox="0 0 11.031 79.383" style="enable-background:new 0 0 11.031 79.383;" xml:space="preserve">
<g id="Layer_1" style="display:none;">
	<polyline style="display:inline;fill:#4D4D4D;" points="-640.17,-167.292 -54.17,-167.292 -54.17,-299.292 -1078.17,-299.292 
		-1078.17,-167.292 -656.17,-167.292 	"/>
	<rect x="-1078.169" y="-330.004" style="display:inline;opacity:0.3;fill:#FFFFFF;" width="1023.92" height="30.657"/>
	
		<text transform="matrix(1 0 0 1 -148.7975 -310.4526)" style="display:inline;fill:#112F3F; font-family:'Lato-Light'; font-size:10.9198px;">Avi Yitzchak</text>
	<g style="display:inline;">
		<g>
			<polygon style="fill:#112F3F;" points="-87.943,-315.141 -87.365,-315.679 -84.717,-312.83 -82.069,-315.679 -81.492,-315.141 
				-84.717,-311.672 			"/>
		</g>
	</g>
	<rect x="-1078.09" y="-141.261" style="display:inline;opacity:0.3;fill:#B3B3B3;" width="155.155" height="1019.968"/>
	<rect x="-1078.17" y="25.369" style="display:inline;fill:#333333;" width="155.235" height="54.592"/>
	<rect x="-1078.09" y="79.961" style="display:inline;opacity:0.67;fill:#FFFFFF;" width="155.155" height="382.289"/>
	<rect x="-1078.17" y="202.911" style="display:inline;opacity:0.2;fill:#4D4D4D;" width="155.235" height="26.516"/>
	<g style="display:inline;">
		<text transform="matrix(1 0 0 1 -1037.2643 56.6724)" style="fill:#FFFFFF; font-family:'Lato-Regular'; font-size:12px;">STRUCTURE</text>
	</g>
	<text transform="matrix(1 0 0 1 -1062.9347 107.5601)" style="display:inline;"><tspan x="0" y="0" style="fill:#333333; font-family:'Lato-Bold'; font-size:12px;">Company</tspan><tspan x="50.886" y="0" style="fill:#333333; font-family:'Lato-Light'; font-size:12px;"> </tspan><tspan x="54.144" y="0" style="opacity:0.5;fill:#333333; font-family:'Lato-Light'; font-size:8px;">(1,912)</tspan></text>
	<g style="display:inline;">
		<g>
			<g>
				<polygon style="fill:#FFFFFF;" points="-947.66,50.255 -941.082,56.833 -940.203,55.954 -947.66,48.497 -955.117,55.955 
					-954.239,56.833 				"/>
			</g>
		</g>
	</g>
	<text transform="matrix(1 0 0 1 -1054.8214 135.4285)" style="display:inline;"><tspan x="0" y="0" style="fill:#333333; font-family:'Lato-Light'; font-size:12px;">Dep 1 </tspan><tspan x="35.472" y="0" style="opacity:0.5;fill:#333333; font-family:'Lato-Light'; font-size:8px;">(1,020)</tspan></text>
	<circle style="display:inline;fill:#3398CC;" cx="-1061.102" cy="131.421" r="1.833"/>
	<text transform="matrix(1 0 0 1 -1054.8214 163.3435)" style="display:inline;"><tspan x="0" y="0" style="fill:#333333; font-family:'Lato-Light'; font-size:12px;">Dep 2 </tspan><tspan x="35.472" y="0" style="opacity:0.5;fill:#333333; font-family:'Lato-Light'; font-size:8px;">(892)</tspan></text>
	<circle style="display:inline;fill:#FE9A34;" cx="-1061.102" cy="159.495" r="1.833"/>
	<text transform="matrix(1 0 0 1 -1054.8214 386.6624)" style="display:inline;"><tspan x="0" y="0" style="fill:#333333; font-family:'Lato-Light'; font-size:12px;">Dep 3 </tspan><tspan x="35.472" y="0" style="opacity:0.5;fill:#333333; font-family:'Lato-Light'; font-size:8px;">(892)</tspan></text>
	<circle style="display:inline;fill:#86328C;" cx="-1061.102" cy="382.815" r="1.833"/>
	<text transform="matrix(1 0 0 1 -1054.8214 414.5774)" style="display:inline;"><tspan x="0" y="0" style="fill:#333333; font-family:'Lato-Light'; font-size:12px;">Dep 4 </tspan><tspan x="35.472" y="0" style="opacity:0.5;fill:#333333; font-family:'Lato-Light'; font-size:8px;">(892)</tspan></text>
	<circle style="display:inline;fill:#00AEEF;" cx="-1061.102" cy="410.729" r="1.833"/>
	<text transform="matrix(1 0 0 1 -1054.8214 442.4924)" style="display:inline;"><tspan x="0" y="0" style="fill:#333333; font-family:'Lato-Light'; font-size:12px;">Dep 5 </tspan><tspan x="35.472" y="0" style="opacity:0.5;fill:#333333; font-family:'Lato-Light'; font-size:8px;">(892)</tspan></text>
	<circle style="display:inline;fill:#FFF200;" cx="-1061.102" cy="438.644" r="1.833"/>
	<text transform="matrix(1 0 0 1 -1039.7081 247.0884)" style="display:inline;"><tspan x="0" y="0" style="fill:#333333; font-family:'Lato-Light'; font-size:12px;">Sub-SubDep 1 </tspan><tspan x="79.163" y="0" style="opacity:0.5;fill:#333333; font-family:'Lato-Light'; font-size:8px;">(892)</tspan></text>
	<circle style="display:inline;fill:#F15A22;" cx="-1045.988" cy="243.24" r="1.833"/>
	<text transform="matrix(1 0 0 1 -1039.7081 275.0034)" style="display:inline;"><tspan x="0" y="0" style="fill:#333333; font-family:'Lato-Light'; font-size:12px;">Sub-SubDep 2 </tspan><tspan x="79.163" y="0" style="opacity:0.5;fill:#333333; font-family:'Lato-Light'; font-size:8px;">(892)</tspan></text>
	<circle style="display:inline;fill:#EC008C;" cx="-1045.988" cy="271.155" r="1.833"/>
	<text transform="matrix(1 0 0 1 -1039.7081 302.9182)" style="display:inline;"><tspan x="0" y="0" style="fill:#333333; font-family:'Lato-Light'; font-size:12px;">Sub-SubDep 3 </tspan><tspan x="79.163" y="0" style="opacity:0.5;fill:#333333; font-family:'Lato-Light'; font-size:8px;">(892)</tspan></text>
	<circle style="display:inline;fill:#5BC9E1;" cx="-1045.988" cy="299.07" r="1.833"/>
	<text transform="matrix(1 0 0 1 -1047.8214 191.2583)" style="display:inline;"><tspan x="0" y="0" style="fill:#333333; font-family:'Lato-Light'; font-size:12px;">SubDep1 </tspan><tspan x="51.84" y="0" style="opacity:0.5;fill:#333333; font-family:'Lato-Light'; font-size:8px;">(148)</tspan></text>
	<circle style="display:inline;fill:#FFC60B;" cx="-1052.988" cy="187.451" r="1.833"/>
	<text transform="matrix(1 0 0 1 -1047.8214 219.1733)" style="display:inline;"><tspan x="0" y="0" style="fill:#333333; font-family:'Lato-LightItalic'; font-size:12px;">SubDep2</tspan><tspan x="45.605" y="0" style="opacity:0.5;fill:#333333; font-family:'Lato-LightItalic'; font-size:8px;"> (234)</tspan></text>
	<circle style="display:inline;fill:#E81E26;" cx="-1052.988" cy="215.525" r="1.833"/>
	<text transform="matrix(1 0 0 1 -1047.8214 330.8335)" style="display:inline;"><tspan x="0" y="0" style="fill:#333333; font-family:'Lato-Light'; font-size:12px;">SubDep3 </tspan><tspan x="51.84" y="0" style="opacity:0.5;fill:#333333; font-family:'Lato-Light'; font-size:8px;">(98)</tspan></text>
	<circle style="display:inline;fill:#C6A9B5;" cx="-1052.988" cy="327.026" r="1.833"/>
	<text transform="matrix(1 0 0 1 -1047.8214 358.7483)" style="display:inline;"><tspan x="0" y="0" style="fill:#333333; font-family:'Lato-Light'; font-size:12px;">SubDep4</tspan><tspan x="48.581" y="0" style="fill:#333333; font-family:'Lato-Light'; font-size:8px;"> (238)</tspan></text>
	<circle style="display:inline;fill:#B2D235;" cx="-1052.988" cy="355.1" r="1.833"/>
	
		<line style="display:inline;opacity:0.3;fill:none;stroke:#4D4D4D;stroke-width:0.5;stroke-miterlimit:10;" x1="-925.935" y1="-141.261" x2="-1081.169" y2="-141.261"/>
	
		<line style="display:inline;opacity:0.3;fill:none;stroke:#4D4D4D;stroke-width:0.5;stroke-miterlimit:10;" x1="-922.935" y1="25.297" x2="-1078.17" y2="25.297"/>
	
		<line style="display:inline;opacity:0.3;fill:none;stroke:#4D4D4D;stroke-miterlimit:10;" x1="-922.935" y1="79.961" x2="-1078.17" y2="79.961"/>
	<g style="display:inline;opacity:0.5;">
		<g>
			<path style="fill:#FFFFFF;" d="M-1047.333,54.385c-0.321,0.085-0.596,0.256-0.809,0.48l-1.845-1.07
				c-0.106,0.242-0.239,0.472-0.398,0.686l1.845,1.07c-0.09,0.296-0.101,0.62-0.016,0.94c0.244,0.919,1.188,1.466,2.107,1.222
				c0.919-0.244,1.466-1.188,1.222-2.107C-1045.471,54.687-1046.414,54.14-1047.333,54.385z"/>
			<path style="fill:#FFFFFF;" d="M-1054.5,46.284c0.237,0.232,0.524,0.382,0.826,0.45l0.02,2.133
				c0.265-0.032,0.53-0.035,0.793-0.007l-0.02-2.133c0.3-0.074,0.584-0.229,0.817-0.466c0.666-0.679,0.656-1.77-0.023-2.436
				c-0.679-0.666-1.77-0.656-2.436,0.023C-1055.19,44.527-1055.179,45.618-1054.5,46.284z"/>
			<path style="fill:#FFFFFF;" d="M-1056.278,54.154c-0.067-0.115-0.127-0.233-0.18-0.354l-1.844,1.074
				c-0.213-0.224-0.488-0.394-0.809-0.479c-0.92-0.243-1.862,0.306-2.105,1.226c-0.243,0.92,0.306,1.862,1.226,2.105
				c0.92,0.243,1.862-0.306,2.105-1.226c0.085-0.321,0.073-0.645-0.017-0.94l1.843-1.074
				C-1056.138,54.38-1056.211,54.27-1056.278,54.154z"/>
			<path style="fill:#FFFFFF;" d="M-1051.845,54.744c0.304-0.177,0.562-0.404,0.768-0.664c0.167-0.21,0.3-0.442,0.398-0.687
				c0.302-0.756,0.265-1.639-0.177-2.397c-0.442-0.758-1.191-1.226-1.998-1.336c-0.261-0.036-0.529-0.034-0.793,0.007
				c-0.328,0.051-0.653,0.163-0.957,0.34c-1.192,0.694-1.665,2.148-1.164,3.391c0.049,0.121,0.107,0.241,0.175,0.357
				c0.068,0.116,0.143,0.226,0.224,0.328C-1054.535,55.133-1053.037,55.438-1051.845,54.744z"/>
		</g>
	</g>
	<g style="display:inline;opacity:0.7;">
		<g>
			<path style="fill:#112F3F;" d="M-163.535-322.676c-4.411,0-8,3.589-8,8c0,4.411,3.589,8,8,8c4.411,0,8-3.589,8-8
				C-155.535-319.087-159.123-322.676-163.535-322.676z M-158.922-310.266c0-0.185,0-0.315,0-0.315c0-1.091-1.261-1.489-1.935-1.778
				c-0.244-0.104-0.705-0.326-1.177-0.557c-0.16-0.078-0.303-0.286-0.321-0.463l-0.052-0.517c0.362-0.337,0.687-0.806,0.742-1.328
				h0.082c0.128,0,0.249-0.096,0.268-0.214l0.128-0.79c0.017-0.169-0.142-0.271-0.272-0.271c0.004-0.017,0.006-0.034,0.008-0.048
				c0.016-0.095,0.026-0.187,0.033-0.276c0.008-0.072,0.014-0.146,0.018-0.223c0.014-0.373-0.05-0.7-0.154-0.882
				c-0.106-0.256-0.267-0.504-0.492-0.716c-0.625-0.592-1.35-0.822-1.968-0.346c-0.421-0.073-0.921,0.12-1.282,0.543
				c-0.197,0.231-0.32,0.495-0.373,0.755c-0.047,0.162-0.078,0.358-0.086,0.571c-0.008,0.236,0.015,0.452,0.058,0.627
				c-0.123,0.008-0.246,0.109-0.246,0.268l0.128,0.79c0.019,0.118,0.14,0.214,0.268,0.214h0.073
				c0.116,0.565,0.416,1.029,0.749,1.353l-0.05,0.5c-0.018,0.177-0.162,0.384-0.322,0.463c-0.457,0.223-0.907,0.438-1.177,0.549
				c-0.635,0.262-1.935,0.687-1.935,1.778v0.247c-1.06-1.141-1.713-2.664-1.713-4.34c0-3.523,2.866-6.389,6.389-6.389
				c3.523,0,6.389,2.866,6.389,6.389C-157.146-312.966-157.824-311.415-158.922-310.266z"/>
		</g>
	</g>
	<g style="display:inline;">
		<path style="fill-rule:evenodd;clip-rule:evenodd;fill:#F89838;" d="M-1033.579-260.542c-1.052,1.623,6.507,4.528,6.246,8.631
			c-0.236,3.769-9.695,8.745-9.271,11.152c0.465,2.651,21.339-10.239,20.972-14.619
			C-1015.795-257.304-1031.451-263.259-1033.579-260.542L-1033.579-260.542z"/>
		<path style="fill-rule:evenodd;clip-rule:evenodd;fill:#FFFFFF;" d="M-1015.102-272.225c-1.394-0.122-0.693,5.711-3.408,6.934
			c-2.495,1.126-8.888-3.247-10.282-2.162c-1.541,1.199,13.789,10.206,16.471,8.484
			C-1011.147-259.727-1012.64-271.776-1015.102-272.225L-1015.102-272.225z"/>
		<path style="fill-rule:evenodd;clip-rule:evenodd;fill:#FFFFFF;" d="M-1001.036-263.953c-0.343-0.897-3.726,1.297-5.3-0.008
			c-1.443-1.207-0.677-6.469-1.769-7c-1.207-0.587-2.136,11.584-0.261,12.718C-1007.551-257.736-1000.563-262.296-1001.036-263.953
			L-1001.036-263.953z"/>
		<path style="fill-rule:evenodd;clip-rule:evenodd;fill:#3399CC;" d="M-1010.193-229.77c-2.039,0.832-3.694-8.248-8.35-8.819
			c-4.273-0.522-11.832,9.031-14.433,8.044c-2.878-1.085,15.949-21.758,20.777-20.428
			C-1010.079-250.385-1006.695-231.589-1010.193-229.77L-1010.193-229.77z"/>
		<path style="fill-rule:evenodd;clip-rule:evenodd;fill:#3399CC;" d="M-1012.95-256.912c0.946-0.881,2.422-0.824,3.302,0.122
			c0.881,0.938,0.824,2.415-0.114,3.296c-0.946,0.881-2.422,0.832-3.302-0.114C-1013.944-254.554-1013.887-256.031-1012.95-256.912
			L-1012.95-256.912z"/>
		<path id="insights..._7_" style="fill:#FFFFFF;" d="M-1000.042-235.513h0.579h0.13v0.131v4.674v0.139h-0.13h-0.579h-0.139v-0.139
			v-4.674v-0.131H-1000.042z M-995.679-235.489h0.302h0.065l0.033,0.049l2.772,3.198v-3.108v-0.139h0.13h0.579h0.13v0.139v4.626
			v0.139h-0.13h-0.294h-0.065l-0.032-0.049l-2.781-3.198v3.108v0.139h-0.13h-0.579h-0.13v-0.139v-4.626v-0.139H-995.679z
			 M-988.047-232.021c0.163,0.122,0.326,0.236,0.489,0.326c0.163,0.098,0.334,0.18,0.497,0.236c0.171,0.065,0.342,0.114,0.506,0.147
			c0.163,0.033,0.334,0.049,0.497,0.049c0.212,0,0.399-0.025,0.563-0.074c0.082-0.024,0.155-0.049,0.228-0.081
			c0.065-0.025,0.122-0.065,0.179-0.106c0.057-0.041,0.106-0.081,0.147-0.122c0.041-0.041,0.073-0.09,0.106-0.147l0,0
			c0.025-0.041,0.049-0.098,0.057-0.147l0,0c0.016-0.057,0.024-0.106,0.024-0.163c0-0.09-0.016-0.171-0.057-0.236v-0.008
			c-0.033-0.073-0.09-0.139-0.163-0.204l0,0c-0.082-0.065-0.179-0.122-0.293-0.163h-0.008c-0.122-0.041-0.269-0.073-0.44-0.082
			l-0.285-0.025l-0.269-0.016l0,0l-0.261-0.025l0,0l-0.245-0.025l0,0c-0.163-0.016-0.326-0.041-0.465-0.073l0,0
			c-0.073-0.016-0.147-0.041-0.22-0.065c-0.065-0.016-0.139-0.049-0.204-0.082l0,0c-0.236-0.114-0.424-0.261-0.546-0.44
			c-0.122-0.18-0.188-0.392-0.188-0.628c0-0.098,0.016-0.196,0.041-0.294c0.016-0.09,0.057-0.18,0.098-0.269l0,0
			c0.049-0.082,0.106-0.163,0.171-0.245c0.065-0.073,0.147-0.139,0.228-0.204c0.09-0.065,0.179-0.122,0.277-0.171h0.008
			c0.098-0.049,0.204-0.09,0.326-0.122v-0.008c0.114-0.033,0.236-0.057,0.367-0.073c0.13-0.016,0.269-0.025,0.408-0.025
			c0.408,0,0.807,0.065,1.191,0.196l0,0c0.196,0.065,0.383,0.155,0.563,0.245c0.188,0.098,0.367,0.212,0.538,0.343l0.106,0.073
			l-0.073,0.106l-0.334,0.481l-0.082,0.114l-0.114-0.089c-0.277-0.22-0.563-0.392-0.864-0.498c-0.294-0.114-0.603-0.163-0.921-0.163
			c-0.171,0-0.326,0.008-0.457,0.041c-0.13,0.033-0.245,0.082-0.342,0.147c-0.098,0.057-0.163,0.122-0.204,0.188
			c-0.041,0.065-0.065,0.13-0.065,0.204c0,0.114,0.057,0.22,0.171,0.302c0.041,0.033,0.09,0.065,0.139,0.081
			c0.049,0.025,0.098,0.049,0.155,0.065c0.065,0.008,0.13,0.025,0.204,0.041c0.065,0.008,0.147,0.025,0.22,0.033
			c0.155,0.016,0.326,0.025,0.514,0.033c0.098,0.008,0.196,0.016,0.294,0.024c0.09,0,0.196,0.016,0.31,0.025h0.008
			c0.253,0.033,0.481,0.09,0.677,0.171c0.204,0.082,0.375,0.196,0.522,0.327c0.147,0.139,0.253,0.294,0.326,0.465
			c0.073,0.163,0.114,0.351,0.114,0.547c0,0.106-0.016,0.22-0.041,0.326c-0.025,0.106-0.057,0.204-0.114,0.302l0,0
			c-0.049,0.098-0.106,0.196-0.18,0.277l0,0c-0.073,0.09-0.155,0.171-0.245,0.245c-0.098,0.065-0.196,0.131-0.31,0.196
			c-0.114,0.057-0.245,0.106-0.375,0.147c-0.13,0.041-0.277,0.073-0.432,0.09c-0.147,0.024-0.31,0.033-0.473,0.033
			c-0.236,0-0.465-0.016-0.685-0.049c-0.22-0.033-0.432-0.082-0.636-0.155l0,0c-0.204-0.065-0.408-0.155-0.603-0.261
			c-0.196-0.106-0.383-0.237-0.571-0.375l-0.098-0.073l0.073-0.106l0.334-0.497l0.073-0.122L-988.047-232.021z M-980.496-235.513
			h0.579h0.13v0.131v4.674v0.139h-0.13h-0.579h-0.139v-0.139v-4.674v-0.131H-980.496z M-972.725-232.519h-1.125h-0.13v-0.139v-0.53
			v-0.13h0.13h1.835h0.13v0.13v1.395v0.033l-0.016,0.033c-0.114,0.204-0.253,0.383-0.408,0.538c-0.147,0.155-0.326,0.294-0.514,0.4
			c-0.188,0.106-0.391,0.187-0.603,0.236c-0.212,0.057-0.44,0.082-0.677,0.082c-0.359,0-0.701-0.066-1.011-0.188l0,0
			c-0.155-0.065-0.302-0.139-0.432-0.229l0,0c-0.13-0.089-0.261-0.187-0.367-0.302c-0.114-0.114-0.212-0.237-0.302-0.375
			c-0.09-0.139-0.163-0.277-0.228-0.432c-0.057-0.155-0.106-0.318-0.139-0.497c-0.033-0.171-0.049-0.343-0.049-0.53
			c0-0.367,0.065-0.71,0.188-1.02c0.065-0.155,0.139-0.302,0.228-0.441c0.09-0.13,0.188-0.261,0.302-0.375
			c0.106-0.114,0.236-0.22,0.367-0.31c0.13-0.089,0.277-0.163,0.432-0.228l0,0c0.155-0.065,0.318-0.114,0.489-0.139
			c0.163-0.033,0.343-0.049,0.522-0.049c0.22,0,0.432,0.025,0.644,0.074l0,0c0.204,0.049,0.4,0.122,0.587,0.22
			c0.179,0.106,0.351,0.22,0.506,0.367l0,0c0.147,0.139,0.277,0.302,0.391,0.481l0.065,0.106l-0.098,0.073l-0.481,0.343l-0.122,0.09
			l-0.073-0.139c-0.065-0.122-0.147-0.245-0.245-0.343l0,0c-0.098-0.098-0.204-0.187-0.334-0.253
			c-0.122-0.073-0.253-0.13-0.391-0.163c-0.147-0.033-0.294-0.049-0.449-0.049c-0.245,0-0.465,0.041-0.669,0.13
			c-0.106,0.041-0.196,0.09-0.285,0.155c-0.09,0.057-0.171,0.122-0.245,0.204c-0.073,0.074-0.139,0.163-0.196,0.253
			c-0.057,0.09-0.106,0.188-0.147,0.302l0,0c-0.049,0.106-0.082,0.22-0.098,0.334c-0.025,0.122-0.033,0.245-0.033,0.375
			c0,0.13,0.008,0.253,0.033,0.375c0.016,0.114,0.049,0.228,0.098,0.334c0.041,0.106,0.09,0.204,0.147,0.294
			c0.057,0.098,0.13,0.179,0.196,0.261h0.008c0.073,0.073,0.147,0.147,0.237,0.204c0.09,0.057,0.179,0.114,0.285,0.155l0,0
			c0.098,0.041,0.204,0.074,0.318,0.098c0.114,0.016,0.228,0.025,0.351,0.025c0.294,0,0.563-0.057,0.799-0.188
			c0.22-0.122,0.416-0.31,0.579-0.547V-232.519z M-968.436-235.489h0.587h0.13v0.139v1.697h2.462v-1.697v-0.139h0.13h0.571h0.139
			v0.139v4.626v0.139h-0.139h-0.571h-0.13v-0.139v-2.138h-2.462v2.138v0.139h-0.13h-0.587h-0.13v-0.139v-4.626v-0.139H-968.436z
			 M-960.086-234.689h-1.81h-0.13v-0.131v-0.53v-0.139h0.13h4.468h0.13v0.139v0.53v0.131h-0.13h-1.818v3.965v0.139h-0.13h-0.571
			h-0.139v-0.139V-234.689z M-954.803-232.021c0.155,0.122,0.318,0.236,0.489,0.326c0.163,0.098,0.326,0.18,0.497,0.236
			c0.163,0.065,0.334,0.114,0.497,0.147c0.171,0.033,0.335,0.049,0.497,0.049c0.212,0,0.4-0.025,0.563-0.074
			c0.081-0.024,0.163-0.049,0.228-0.081c0.065-0.025,0.13-0.065,0.179-0.106c0.057-0.041,0.106-0.081,0.147-0.122
			c0.041-0.041,0.074-0.09,0.106-0.147l0,0c0.025-0.041,0.049-0.098,0.065-0.147l0,0c0.016-0.057,0.016-0.106,0.016-0.163
			c0-0.09-0.016-0.171-0.049-0.236v-0.008c-0.041-0.073-0.098-0.139-0.171-0.204l0,0c-0.074-0.065-0.18-0.122-0.294-0.163l0,0
			c-0.122-0.041-0.269-0.073-0.44-0.082l-0.286-0.025l-0.277-0.016l0,0l-0.253-0.025h-0.008l-0.245-0.025l0,0
			c-0.163-0.016-0.318-0.041-0.465-0.073l0,0c-0.073-0.016-0.147-0.041-0.212-0.065c-0.073-0.016-0.139-0.049-0.204-0.082l0,0
			c-0.245-0.114-0.424-0.261-0.546-0.44c-0.13-0.18-0.188-0.392-0.188-0.628c0-0.098,0.008-0.196,0.033-0.294
			c0.024-0.09,0.057-0.18,0.106-0.269l0,0c0.041-0.082,0.098-0.163,0.171-0.245c0.065-0.073,0.139-0.139,0.228-0.204
			c0.082-0.065,0.179-0.122,0.277-0.171l0,0c0.098-0.049,0.212-0.09,0.326-0.122v-0.008c0.114-0.033,0.236-0.057,0.367-0.073
			c0.13-0.016,0.269-0.025,0.416-0.025c0.408,0,0.799,0.065,1.191,0.196l0,0c0.187,0.065,0.375,0.155,0.563,0.245
			c0.179,0.098,0.359,0.212,0.53,0.343l0.106,0.073l-0.073,0.106l-0.334,0.481l-0.081,0.114l-0.106-0.089
			c-0.277-0.22-0.571-0.392-0.864-0.498c-0.294-0.114-0.603-0.163-0.921-0.163c-0.18,0-0.335,0.008-0.465,0.041
			c-0.13,0.033-0.245,0.082-0.342,0.147c-0.09,0.057-0.163,0.122-0.204,0.188c-0.041,0.065-0.057,0.13-0.057,0.204
			c0,0.114,0.057,0.22,0.171,0.302c0.041,0.033,0.082,0.065,0.13,0.081c0.049,0.025,0.106,0.049,0.163,0.065
			c0.057,0.008,0.122,0.025,0.196,0.041c0.073,0.008,0.147,0.025,0.22,0.033c0.155,0.016,0.326,0.025,0.514,0.033
			c0.106,0.008,0.204,0.016,0.302,0.024c0.089,0,0.196,0.016,0.31,0.025l0,0c0.253,0.033,0.481,0.09,0.677,0.171
			c0.204,0.082,0.383,0.196,0.522,0.327c0.147,0.139,0.261,0.294,0.334,0.465c0.073,0.163,0.106,0.351,0.106,0.547
			c0,0.106-0.008,0.22-0.033,0.326c-0.025,0.106-0.065,0.204-0.114,0.302l0,0c-0.049,0.098-0.114,0.196-0.188,0.277l0,0
			c-0.065,0.09-0.147,0.171-0.245,0.245c-0.09,0.065-0.196,0.131-0.31,0.196c-0.114,0.057-0.236,0.106-0.367,0.147
			c-0.138,0.041-0.285,0.073-0.432,0.09c-0.155,0.024-0.31,0.033-0.481,0.033c-0.229,0-0.457-0.016-0.685-0.049
			c-0.212-0.033-0.432-0.082-0.636-0.155l0,0c-0.204-0.065-0.399-0.155-0.595-0.261c-0.196-0.106-0.391-0.237-0.571-0.375
			l-0.098-0.073l0.065-0.106l0.334-0.497l0.082-0.122L-954.803-232.021z M-939.449-235.489h0.563h0.098l0.033,0.098l1.019,3.182
			l1.052-3.182l0.024-0.098h0.098h0.514h0.098l0.024,0.098l1.052,3.174l1.027-3.174l0.025-0.098h0.098h0.546h0.188l-0.057,0.18
			l-1.5,4.626l-0.033,0.098h-0.098h-0.416h-0.098l-0.033-0.098l-1.084-3.337l-1.084,3.337l-0.033,0.098h-0.098h-0.416h-0.098
			l-0.033-0.098l-1.509-4.626l-0.057-0.18H-939.449z M-930.128-235.513h0.587h0.13v0.131v4.674v0.139h-0.13h-0.587h-0.13v-0.139
			v-4.674v-0.131H-930.128z M-925.081-234.689h-1.818h-0.13v-0.131v-0.53v-0.139h0.13h4.468h0.13v0.139v0.53v0.131h-0.13h-1.81
			v3.965v0.139h-0.139h-0.571h-0.13v-0.139V-234.689z M-919.781-235.489h0.579h0.13v0.139v1.697h2.462v-1.697v-0.139h0.13h0.579
			h0.13v0.139v4.626v0.139h-0.13h-0.579h-0.13v-0.139v-2.138h-2.462v2.138v0.139h-0.13h-0.579h-0.139v-0.139v-4.626v-0.139H-919.781
			z M-903.538-235.513h0.587h0.13v0.131v4.674v0.139h-0.13h-0.587h-0.13v-0.139v-4.674v-0.131H-903.538z M-899.192-235.489h0.53
			h0.073l0.041,0.065l1.761,2.668l1.761-2.668l0.041-0.065h0.073h0.522h0.13v0.139v4.626v0.139h-0.13h-0.571h-0.13v-0.139v-3.182
			l-1.59,2.382l-0.114,0.163l-0.106-0.163l-1.59-2.382v3.182v0.139h-0.13h-0.571h-0.13v-0.139v-4.626v-0.139H-899.192z
			 M-888.045-233.425c0.261,0,0.448-0.049,0.571-0.155c0.114-0.098,0.179-0.253,0.179-0.465c0-0.106-0.016-0.196-0.049-0.277
			c-0.025-0.073-0.074-0.139-0.13-0.196c-0.057-0.057-0.13-0.098-0.22-0.122c-0.09-0.033-0.204-0.049-0.326-0.049h-1.932v1.264
			H-888.045z M-890.662-235.489h2.65c0.489,0,0.872,0.122,1.15,0.367c0.147,0.13,0.253,0.277,0.326,0.449
			c0.065,0.171,0.106,0.359,0.106,0.571c0,0.106-0.008,0.212-0.033,0.302v0.008c-0.016,0.09-0.041,0.188-0.074,0.277l0,0
			c-0.032,0.09-0.081,0.171-0.13,0.253c-0.049,0.081-0.106,0.155-0.171,0.22c-0.13,0.131-0.285,0.236-0.473,0.31
			c-0.089,0.041-0.187,0.065-0.293,0.09c-0.106,0.016-0.22,0.025-0.334,0.025h-2.014v1.893v0.139h-0.139h-0.571h-0.13v-0.139v-4.626
			v-0.139H-890.662z M-880.6-232.642l-0.807-1.623l-0.799,1.623H-880.6z M-881.644-235.489h0.473h0.082l0.041,0.074l2.291,4.634
			l0.09,0.196h-0.212h-0.628h-0.082l-0.033-0.073l-0.587-1.175h-2.397l-0.571,1.166l-0.032,0.082h-0.082h-0.62h-0.212l0.098-0.196
			l2.259-4.634l0.032-0.074H-881.644z M-871.517-231.793c-0.106,0.212-0.245,0.4-0.4,0.563c-0.155,0.163-0.326,0.31-0.522,0.424
			c-0.196,0.106-0.4,0.196-0.62,0.253c-0.22,0.057-0.457,0.082-0.701,0.082c-0.359,0-0.693-0.066-1.003-0.188l0,0
			c-0.155-0.065-0.302-0.139-0.432-0.229l0,0c-0.13-0.089-0.261-0.187-0.367-0.302c-0.114-0.114-0.212-0.237-0.302-0.375
			c-0.09-0.139-0.163-0.277-0.228-0.432c-0.057-0.155-0.106-0.318-0.139-0.497c-0.033-0.171-0.049-0.343-0.049-0.53
			c0-0.367,0.065-0.71,0.187-1.02c0.065-0.155,0.139-0.302,0.228-0.441c0.09-0.13,0.188-0.261,0.302-0.375
			c0.106-0.114,0.236-0.22,0.367-0.31c0.13-0.089,0.277-0.163,0.432-0.228l0,0c0.155-0.065,0.318-0.114,0.489-0.139
			c0.163-0.033,0.342-0.049,0.514-0.049c0.228,0,0.44,0.025,0.652,0.074l0,0c0.204,0.049,0.4,0.122,0.587,0.22
			c0.179,0.106,0.351,0.22,0.497,0.367l0,0c0.155,0.139,0.285,0.302,0.4,0.481l0.065,0.106l-0.098,0.073l-0.481,0.343l-0.122,0.09
			l-0.074-0.139c-0.065-0.122-0.147-0.245-0.245-0.343l0,0c-0.098-0.098-0.204-0.187-0.334-0.253
			c-0.122-0.073-0.253-0.13-0.391-0.163c-0.147-0.033-0.294-0.049-0.457-0.049c-0.236,0-0.457,0.041-0.661,0.13
			c-0.106,0.041-0.196,0.09-0.285,0.155c-0.09,0.057-0.171,0.122-0.245,0.204c-0.073,0.074-0.139,0.163-0.195,0.253
			c-0.057,0.09-0.106,0.188-0.147,0.302l0,0c-0.049,0.106-0.081,0.22-0.098,0.334c-0.024,0.122-0.033,0.245-0.033,0.375
			c0,0.13,0.008,0.253,0.033,0.375c0.016,0.114,0.049,0.228,0.098,0.334c0.041,0.106,0.09,0.204,0.147,0.294
			c0.057,0.098,0.122,0.179,0.195,0.261h0.008c0.073,0.073,0.147,0.147,0.236,0.204c0.089,0.057,0.179,0.114,0.285,0.155l0,0
			c0.098,0.041,0.204,0.074,0.318,0.098c0.114,0.016,0.228,0.025,0.342,0.025c0.171,0,0.334-0.016,0.481-0.057
			c0.147-0.041,0.286-0.106,0.416-0.188l0,0c0.261-0.163,0.481-0.408,0.652-0.734l0.073-0.139l0.122,0.09l0.465,0.342l0.089,0.074
			L-871.517-231.793z M-867.53-234.689h-1.81h-0.139v-0.131v-0.53v-0.139h0.139h4.46h0.139v0.139v0.53v0.131h-0.139h-1.81v3.965
			v0.139h-0.13h-0.579h-0.13v-0.139V-234.689z"/>
		<path id="stepahead_7_" style="fill:#FFFFFF;" d="M-871.443-251.079c1.044,0,1.973,0.155,2.797,0.473
			c0.824,0.31,1.525,0.742,2.104,1.289c0.579,0.555,1.027,1.207,1.329,1.966c0.302,0.75,0.457,1.574,0.457,2.455
			c0,0.881-0.147,1.697-0.44,2.447c-0.294,0.742-0.726,1.387-1.297,1.925c-0.571,0.547-1.272,0.963-2.104,1.273
			c-0.84,0.302-1.786,0.457-2.846,0.457h-5.447v-12.286H-871.443z M-998.9-242.888c1.142,0.881,2.316,1.55,3.523,1.999
			c1.207,0.457,2.397,0.677,3.58,0.677c0.767,0,1.451-0.082,2.063-0.245c0.603-0.171,1.117-0.408,1.541-0.71
			c0.424-0.302,0.75-0.661,0.987-1.06s0.359-0.84,0.359-1.313c0-0.726-0.31-1.354-0.93-1.885c-0.62-0.53-1.549-0.84-2.789-0.938
			c-0.685-0.065-1.329-0.114-1.924-0.147c-0.603-0.041-1.174-0.09-1.721-0.155c-0.555-0.057-1.068-0.139-1.549-0.245
			c-0.481-0.106-0.93-0.261-1.337-0.457c-1.517-0.726-2.267-1.819-2.267-3.271c0-0.612,0.139-1.183,0.424-1.713
			c0.285-0.53,0.693-0.995,1.239-1.395c0.538-0.4,1.182-0.718,1.941-0.946c0.758-0.22,1.606-0.334,2.544-0.334
			c1.362,0,2.675,0.22,3.947,0.661c1.28,0.441,2.495,1.085,3.653,1.933l-1.15,1.648c-1.981-1.591-4.118-2.39-6.417-2.39
			c-1.256,0-2.259,0.245-3.001,0.726c-0.75,0.481-1.125,1.052-1.125,1.721c0,0.547,0.261,1.02,0.766,1.412
			c0.334,0.261,0.726,0.449,1.182,0.563c0.448,0.114,0.954,0.204,1.5,0.269c0.546,0.057,1.15,0.098,1.794,0.13
			c0.652,0.025,1.337,0.081,2.063,0.163c1.672,0.196,2.96,0.726,3.873,1.591c0.913,0.865,1.37,1.901,1.37,3.125
			c0,0.685-0.155,1.338-0.473,1.958c-0.31,0.62-0.767,1.159-1.354,1.615c-0.587,0.465-1.321,0.832-2.193,1.109
			c-0.872,0.269-1.867,0.408-2.993,0.408c-1.566,0-3.033-0.22-4.387-0.677c-1.354-0.449-2.65-1.159-3.881-2.121L-998.9-242.888z
			 M-978.344-249.374h-5.178v-1.705h12.247v1.705h-5.186v10.581h-1.884V-249.374z M-969.333-251.079h11.489v1.762h-9.605v3.1h6.303
			v1.762h-6.303v3.891h10.135v1.77h-12.019V-251.079z M-945.597-245.923c0.669,0,1.174-0.155,1.517-0.457
			c0.343-0.294,0.514-0.718,0.514-1.256c0-0.522-0.163-0.922-0.497-1.224c-0.334-0.302-0.815-0.457-1.443-0.457h-7.127v3.394
			H-945.597z M-952.634-238.793h-1.884v-12.286h8.92c1.28,0,2.267,0.294,2.96,0.897c0.701,0.596,1.044,1.436,1.044,2.521
			c0,0.979-0.326,1.811-1.003,2.488c-0.669,0.677-1.598,1.012-2.805,1.012h-7.233V-238.793z M-933.105-256.284l8.725,17.491h-2.153
			l-2.145-4.275l-4.428-8.697l-4.354,8.697l-2.088,4.275h-2.12L-933.105-256.284z M-919.683-238.793h-1.884v-12.262h1.884v4.773
			h8.692v-4.773h1.884v12.262h-1.884v-5.719h-8.692V-238.793z M-906.196-251.079h11.489v1.762h-9.606v3.1h6.303v1.762h-6.303v3.891
			h10.136v1.77h-12.019V-251.079z M-883.251-243.541l-2.389-4.715l-2.414,4.715H-883.251z M-886.251-251.079h1.207l6.295,12.286
			h-2.055l-1.59-3.124h-6.482l-1.59,3.124h-2.031L-886.251-251.079z M-875.007-249.317v8.753h3.579c1.533,0,2.707-0.408,3.498-1.224
			c0.799-0.816,1.199-1.86,1.199-3.133c0-0.628-0.106-1.215-0.326-1.746c-0.212-0.53-0.53-0.987-0.93-1.379
			c-0.408-0.392-0.897-0.702-1.476-0.93c-0.579-0.228-1.239-0.342-1.965-0.342H-875.007z"/>
		<path id="dot_7_" style="fill-rule:evenodd;clip-rule:evenodd;fill:#3399CC;" d="M-934.613-244.748
			c0.938-0.881,2.422-0.824,3.294,0.122c0.881,0.938,0.832,2.415-0.114,3.296c-0.946,0.881-2.422,0.832-3.302-0.114
			C-935.608-242.39-935.559-243.867-934.613-244.748L-934.613-244.748z"/>
	</g>
	
		<line style="display:inline;fill:none;stroke:#B3B3B3;stroke-width:0.9936;stroke-miterlimit:10;" x1="-903.853" y1="239.379" x2="-57.17" y2="239.379"/>
	<g style="display:inline;">
		<text transform="matrix(1 0 0 1 -134.1696 227.9226)" style="fill:#112F3F; font-family:'Lato-Light'; font-size:11.6679px;">View all</text>
	</g>
	<g style="display:inline;">
		<g>
			<path style="fill:#112F3F;" d="M-88.006,221.106c0.192-0.192,0.504-0.192,0.697,0l3.025,3.025
				c0.096,0.096,0.144,0.222,0.144,0.348c0,0.126-0.048,0.252-0.144,0.348l-3.025,3.025c-0.192,0.192-0.504,0.192-0.697,0
				c-0.192-0.192-0.192-0.504,0-0.697l2.677-2.677l-2.677-2.677C-88.198,221.61-88.198,221.298-88.006,221.106z"/>
		</g>
	</g>
	
		<line style="display:inline;fill:none;stroke:#112F3F;stroke-width:0.487;stroke-miterlimit:10;" x1="-132.697" y1="231.507" x2="-95.697" y2="231.507"/>
	<path style="display:inline;opacity:0.102;fill:#4D4D4D;" d="M-655.107,484.612h-244.555c-3.167,0-5.759-2.591-5.759-5.759V297.829
		c0-3.167,2.591-5.759,5.759-5.759h244.555c3.167,0,5.759,2.591,5.759,5.759v181.024
		C-649.348,482.021-651.939,484.612-655.107,484.612z"/>
	<path style="display:inline;fill:#EDC607;" d="M-655.107,436.416h-244.555c-3.167,0-5.759-2.591-5.759-5.759V297.546
		c0-3.167,2.591-5.759,5.759-5.759h244.555c3.167,0,5.759,2.591,5.759,5.759v133.112
		C-649.348,433.825-651.939,436.416-655.107,436.416z"/>
	<g style="display:inline;">
		<text transform="matrix(1 0 0 1 -849.5388 406.9045)" style="fill:#FFFFFF; font-family:'Lato-Regular'; font-size:12.2429px;">UNRECOGNIZED TALENT</text>
	</g>
	<g style="display:inline;">
		<g>
			<g>
				<polygon style="fill:#FFFFFF;" points="-659.396,301.02 -661.829,303.454 -664.263,301.02 -664.669,301.426 -662.235,303.86 
					-664.669,306.293 -664.263,306.699 -661.829,304.265 -659.396,306.699 -658.99,306.293 -661.424,303.86 -658.99,301.426 				"/>
			</g>
			<g>
				<path style="fill:#FFFFFF;" d="M-661.829,297.55c-3.485,0-6.31,2.825-6.31,6.31c0,3.485,2.825,6.31,6.31,6.31
					c3.485,0,6.31-2.825,6.31-6.31C-655.519,300.375-658.344,297.55-661.829,297.55z M-661.829,309.596
					c-3.168,0-5.736-2.568-5.736-5.736c0-3.168,2.568-5.736,5.736-5.736c3.168,0,5.736,2.568,5.736,5.736
					C-656.093,307.028-658.661,309.596-661.829,309.596z"/>
			</g>
		</g>
	</g>
	<polyline style="display:inline;fill:none;stroke:#FFFFFF;stroke-width:1.9195;stroke-miterlimit:10;" points="-884.531,377.361 
		-832.245,372.988 -809.544,356.465 -777.406,346.972 -748.84,352.073 -712.621,337.28 -672.832,331.158 	"/>
	<circle style="display:inline;fill:#FFFFFF;" cx="-832.245" cy="372.988" r="2.214"/>
	<circle style="display:inline;fill:#FFFFFF;" cx="-884.531" cy="377.361" r="2.214"/>
	<circle style="display:inline;fill:#FFFFFF;" cx="-809.544" cy="356.465" r="2.205"/>
	<circle style="display:inline;fill:#FFFFFF;" cx="-777.152" cy="346.8" r="2.205"/>
	<circle style="display:inline;fill:#FFFFFF;" cx="-749.14" cy="352.054" r="2.205"/>
	<circle style="display:inline;fill:#FFFFFF;" cx="-711.95" cy="337.044" r="2.205"/>
	<circle style="display:inline;fill:#FFFFFF;" cx="-672.832" cy="331.158" r="2.205"/>
	<g style="display:inline;">
		<text transform="matrix(1 0 0 1 -833.6716 467.2444)" style="fill:#808080; font-family:'Lato-Regular'; font-size:15.3036px;">go to network</text>
	</g>
	<g style="display:inline;">
		<g>
			<g>
				<polygon style="fill:#808080;" points="-732.257,467.654 -733.36,466.47 -727.521,461.043 -733.36,455.615 -732.257,454.431 
					-725.147,461.043 				"/>
			</g>
		</g>
	</g>
	<path style="display:inline;opacity:0.102;fill:#4D4D4D;" d="M-87.243,484.612h-244.555c-3.167,0-5.759-2.591-5.759-5.759V297.829
		c0-3.167,2.591-5.759,5.759-5.759h244.555c3.167,0,5.759,2.591,5.759,5.759v181.024C-81.485,482.021-84.076,484.612-87.243,484.612
		z"/>
	<path style="display:inline;fill:#EDC607;" d="M-87.243,436.416h-244.555c-3.167,0-5.759-2.591-5.759-5.759V297.546
		c0-3.167,2.591-5.759,5.759-5.759h244.555c3.167,0,5.759,2.591,5.759,5.759v133.112C-81.485,433.825-84.076,436.416-87.243,436.416
		z"/>
	<g style="display:inline;">
		<text transform="matrix(1 0 0 1 -262.7448 406.9045)" style="fill:#FFFFFF; font-family:'Lato-Regular'; font-size:12.2429px;">SOCIAL POWER</text>
	</g>
	<g style="display:inline;">
		<g>
			<g>
				<polygon style="fill:#FFFFFF;" points="-91.533,301.02 -93.966,303.454 -96.4,301.02 -96.805,301.426 -94.372,303.86 
					-96.805,306.293 -96.4,306.699 -93.966,304.265 -91.533,306.699 -91.127,306.293 -93.56,303.86 -91.127,301.426 				"/>
			</g>
			<g>
				<path style="fill:#FFFFFF;" d="M-93.966,297.55c-3.485,0-6.31,2.825-6.31,6.31c0,3.485,2.825,6.31,6.31,6.31
					c3.485,0,6.31-2.825,6.31-6.31C-87.656,300.375-90.481,297.55-93.966,297.55z M-93.966,309.596
					c-3.168,0-5.736-2.568-5.736-5.736c0-3.168,2.568-5.736,5.736-5.736c3.168,0,5.736,2.568,5.736,5.736
					C-88.23,307.028-90.798,309.596-93.966,309.596z"/>
			</g>
		</g>
	</g>
	<g style="display:inline;">
		<text transform="matrix(1 0 0 1 -265.8083 467.2444)" style="fill:#808080; font-family:'Lato-Regular'; font-size:15.3036px;">go to network</text>
	</g>
	<g style="display:inline;">
		<g>
			<g>
				<polygon style="fill:#808080;" points="-164.394,467.654 -165.497,466.47 -159.658,461.043 -165.497,455.615 -164.394,454.431 
					-157.284,461.043 				"/>
			</g>
		</g>
	</g>
	<path style="display:inline;opacity:0.102;fill:#4D4D4D;" d="M-372.21,484.612h-244.178c-3.167,0-5.759-2.591-5.759-5.759V297.829
		c0-3.167,2.591-5.759,5.759-5.759h244.178c3.167,0,5.759,2.591,5.759,5.759v181.024
		C-366.451,482.021-369.043,484.612-372.21,484.612z"/>
	<path style="display:inline;fill:#EDC607;" d="M-372.21,436.487h-244.178c-3.167,0-5.759-2.591-5.759-5.759V297.829
		c0-3.167,2.591-5.759,5.759-5.759h244.178c3.167,0,5.759,2.591,5.759,5.759v132.899
		C-366.451,433.896-369.043,436.487-372.21,436.487z"/>
	<g style="display:inline;">
		<text transform="matrix(1 0 0 1 -540.7556 365.0491)" style="fill:#FFFFFF; font-family:'Lato-Black'; font-size:53.3977px;">78%</text>
	</g>
	<g style="display:inline;">
		<text transform="matrix(1 0 0 1 -560.7975 407.0217)" style="fill:#FFFFFF; font-family:'Lato-Regular'; font-size:12.2248px;">SURVEY ENGAGEMENT</text>
	</g>
	<g style="display:inline;">
		<g>
			<g>
				<polygon style="fill:#FFFFFF;" points="-376.484,301.291 -378.914,303.721 -381.344,301.291 -381.749,301.696 -379.319,304.126 
					-381.749,306.556 -381.344,306.961 -378.914,304.531 -376.484,306.961 -376.079,306.556 -378.509,304.126 -376.079,301.696 				
					"/>
			</g>
			<g>
				<path style="fill:#FFFFFF;" d="M-378.914,297.825c-3.48,0-6.301,2.821-6.301,6.301c0,3.48,2.821,6.301,6.301,6.301
					c3.48,0,6.301-2.821,6.301-6.301C-372.613,300.646-375.434,297.825-378.914,297.825z M-378.914,309.854
					c-3.163,0-5.728-2.564-5.728-5.728c0-3.163,2.564-5.728,5.728-5.728c3.163,0,5.728,2.564,5.728,5.728
					C-373.186,307.289-375.75,309.854-378.914,309.854z"/>
			</g>
		</g>
	</g>
	<g style="display:inline;">
		<text transform="matrix(1 0 0 1 -539.9274 467.2717)" style="fill:#808080; font-family:'Lato-Regular'; font-size:15.2811px;">go to survey</text>
	</g>
	<g style="display:inline;">
		<g>
			<g>
				<polygon style="fill:#808080;" points="-446.184,467.679 -447.285,466.497 -441.454,461.078 -447.285,455.658 -446.184,454.475 
					-439.084,461.078 				"/>
			</g>
		</g>
	</g>
	<g style="display:inline;">
		<text transform="matrix(1 0 0 1 -230.8669 348.717)" style="fill:#FFFFFF; font-family:'Lato-Light'; font-size:13.6497px;">79%</text>
		<g>
			<path style="fill:#FFFFFF;" d="M-192.751,344.227c0,13.712-11.116,24.828-24.828,24.828c-13.712,0-24.828-11.116-24.828-24.828
				c0-13.712,11.116-24.828,24.828-24.828v-13.123c-20.96,0-37.951,16.991-37.951,37.951s16.991,37.951,37.951,37.951
				s37.951-16.991,37.951-37.951c0-6.47-1.621-12.56-4.475-17.891l-11.577,6.187C-193.813,336.011-192.751,339.994-192.751,344.227z
				"/>
		</g>
		<path style="opacity:0.25;fill:#FFFFFF;" d="M-217.579,306.275v13.123c9.48,0,17.716,5.314,21.899,13.125l11.577-6.187
			C-190.497,314.397-203.089,306.275-217.579,306.275z"/>
	</g>
	<g style="display:inline;">
		<g>
			<text transform="matrix(1 0 0 1 -865.1369 228.448)" style="fill:#112F3F; font-family:'Lato-Light'; font-size:14px;">SPOTLIGHT</text>
		</g>
	</g>
	<g style="display:inline;">
		<g>
			<g>
				<text transform="matrix(1 0 0 1 -617.6579 270.1746)" style="fill:#112F3F; font-family:'Lato-Bold'; font-size:14px;">My Spotlight</text>
			</g>
		</g>
		<g>
			<g>
				<text transform="matrix(1 0 0 1 -525.778 270.1746)" style="fill:#112F3F; font-family:'Lato-Light'; font-size:14px;">Jan 1, 2015 - Jan 1, 2016</text>
			</g>
		</g>
	</g>
	
		<text transform="matrix(1 0 0 1 -1037.2643 -53.1797)" style="display:inline;fill:#112F3F; font-family:'Lato-Light'; font-size:12px;">PRESETS</text>
	<g style="display:inline;opacity:0.56;">
		<g>
			<polygon style="fill:#4D4D4D;" points="-947.661,-54.776 -954.239,-61.354 -955.117,-60.475 -947.661,-53.018 -940.203,-60.475 
				-941.082,-61.354 			"/>
		</g>
	</g>
	
		<text transform="matrix(1 0 0 1 -1037.2643 -108.1797)" style="display:inline;fill:#112F3F; font-family:'Lato-Light'; font-size:12px;">FILTER</text>
	<g style="display:inline;opacity:0.56;">
		<g>
			<polygon style="fill:#4D4D4D;" points="-947.661,-109.776 -954.239,-116.354 -955.117,-115.475 -947.661,-108.018 
				-940.203,-115.475 -941.082,-116.354 			"/>
		</g>
	</g>
	<g style="display:inline;opacity:0.4;">
		<path style="fill:#112F3F;" d="M-1057.215-112.602c0.159,0.173,0.246,0.399,0.246,0.632v6.884c0,0.414,0.5,0.625,0.796,0.333
			l1.92-2.201c0.257-0.308,0.399-0.461,0.399-0.766v-4.248c0-0.234,0.089-0.459,0.246-0.632l5.51-5.979
			c0.413-0.449,0.095-1.176-0.516-1.176h-13.596c-0.61,0-0.93,0.726-0.516,1.176L-1057.215-112.602z"/>
	</g>
	<g style="display:inline;opacity:0.4;">
		<path style="fill:#112F3F;" d="M-1047.671-59.175l-3.247,3.165l0.766,4.47c0.055,0.322-0.078,0.648-0.342,0.84
			c-0.149,0.109-0.327,0.164-0.505,0.164c-0.136,0-0.274-0.033-0.399-0.099l-4.014-2.11l-4.014,2.11
			c-0.289,0.152-0.639,0.127-0.904-0.064c-0.264-0.192-0.396-0.517-0.341-0.84l0.767-4.47l-3.248-3.166
			c-0.235-0.228-0.318-0.569-0.218-0.88c0.101-0.311,0.37-0.537,0.693-0.584l4.488-0.653l2.008-4.067
			c0.144-0.294,0.442-0.479,0.769-0.479c0.328,0,0.625,0.185,0.769,0.478l2.008,4.067l4.489,0.653
			c0.323,0.047,0.592,0.273,0.691,0.584C-1047.352-59.744-1047.438-59.403-1047.671-59.175z"/>
	</g>
	
		<text transform="matrix(1 0 0 1 -1037.2643 2.7095)" style="display:inline;fill:#112F3F; font-family:'Lato-Light'; font-size:12px;">SPOTLIGHT</text>
	<g style="display:inline;opacity:0.56;">
		<g>
			<polygon style="fill:#4D4D4D;" points="-947.661,1.113 -954.239,-5.465 -955.117,-4.586 -947.661,2.871 -940.203,-4.586 
				-941.082,-5.465 			"/>
		</g>
	</g>
	
		<line style="display:inline;opacity:0.3;fill:none;stroke:#4D4D4D;stroke-width:0.5;stroke-miterlimit:10;" x1="-922.935" y1="-29.891" x2="-1078.17" y2="-29.891"/>
	
		<line style="display:inline;opacity:0.3;fill:none;stroke:#4D4D4D;stroke-width:0.5;stroke-miterlimit:10;" x1="-922.935" y1="-86.073" x2="-1078.17" y2="-86.073"/>
	<g style="display:inline;">
		<g>
			<text transform="matrix(1 0 0 1 -842.7575 0)" style="fill:#112F3F; font-family:'Lato-Bold'; font-size:14px;">Workfow</text>
		</g>
	</g>
	<g style="display:inline;">
		<text transform="matrix(1 0 0 1 -853.9626 149.3403)" style="fill:#F89838; font-family:'Lato-Regular'; font-size:30.4664px;">92.7%</text>
	</g>
	<path style="display:inline;opacity:0.16;fill:#F89838;" d="M-731.468,103.63c0-44.283-35.901-80.183-80.185-80.183l0,0
		c-44.284,0-80.186,35.9-80.186,80.183"/>
	
		<text transform="matrix(1 0 0 1 -895.3796 115.8843)" style="display:inline;fill:#4D4D4D; font-family:'Lato-Light'; font-size:9.3266px;">0</text>
	
		<text transform="matrix(1 0 0 1 -741.0241 115.8843)" style="display:inline;fill:#4D4D4D; font-family:'Lato-Light'; font-size:9.3266px;">100</text>
	
		<text transform="matrix(1 0 0 1 -793.5622 23.4478)" style="display:inline;fill:#4D4D4D; font-family:'Lato-Light'; font-size:9.3266px;">60</text>
	<path style="display:inline;fill:#F89838;" d="M-791.073,26.126c-6.569-1.74-13.464-2.678-20.581-2.678
		c-44.284,0-80.185,35.9-80.185,80.183h79.712L-791.073,26.126z"/>
	<path style="display:inline;fill:#4D4D4D;" d="M-813.954,98.841l70.892-19.132l-67.238,29.509
		c-2.789,1.225-6.044-0.045-7.267-2.834c-1.224-2.79,0.044-6.044,2.834-7.268C-814.486,99.007-814.206,98.911-813.954,98.841z"/>
	<g style="display:inline;">
		<text transform="matrix(1 0 0 1 -630.6887 0)" style="fill:#112F3F; font-family:'Lato-Bold'; font-size:14px;">Top Talent</text>
	</g>
	<g style="display:inline;">
		<g>
			<text transform="matrix(1 0 0 1 -641.1974 149.3403)" style="fill:#7AC943; font-family:'Lato-Regular'; font-size:30.4664px;">64.5%</text>
		</g>
	</g>
	<path style="display:inline;opacity:0.16;fill:#7AC943;" d="M-518.703,103.63c0-44.283-35.901-80.183-80.185-80.183l0,0
		c-44.284,0-80.186,35.9-80.186,80.183"/>
	
		<text transform="matrix(1 0 0 1 -682.6144 115.8843)" style="display:inline;fill:#4D4D4D; font-family:'Lato-Light'; font-size:9.3266px;">0</text>
	
		<text transform="matrix(1 0 0 1 -528.259 115.8843)" style="display:inline;fill:#4D4D4D; font-family:'Lato-Light'; font-size:9.3266px;">100</text>
	
		<text transform="matrix(1 0 0 1 -607.4636 20.4478)" style="display:inline;fill:#4D4D4D; font-family:'Lato-Light'; font-size:9.3266px;">49</text>
	<path style="display:inline;fill:#7AC943;" d="M-601.089,23.478c5.755,0.047,9.317-0.031,2.201-0.031
		c-44.284,0-80.185,35.9-80.185,80.183h79.712L-601.089,23.478z"/>
	<path style="display:inline;fill:#4D4D4D;" d="M-603.925,101.297l39.842-61.679l-30.18,66.939
		c-1.251,2.777-4.519,4.014-7.295,2.761c-2.777-1.252-4.014-4.518-2.761-7.296C-604.209,101.777-604.065,101.517-603.925,101.297z"
		/>
	<g style="display:inline;">
		<g>
			<text transform="matrix(1 0 0 1 -212.3678 0)" style="fill:#112F3F; font-family:'Lato-Bold'; font-size:14px;">Collaboraton</text>
		</g>
	</g>
	
		<text transform="matrix(1 0 0 1 -253.6149 115.8843)" style="display:inline;fill:#4D4D4D; font-family:'Lato-Light'; font-size:9.3266px;">0</text>
	<g style="display:inline;">
		<g>
			<text transform="matrix(1 0 0 1 -212.5309 149.3403)" style="fill:#9058E8; font-family:'Lato-Regular'; font-size:30.4664px;">88.4%</text>
		</g>
	</g>
	<path style="display:inline;opacity:0.16;fill:#9058E8;" d="M-90.036,103.63c0-44.283-35.901-80.183-80.185-80.183l0,0
		c-44.284,0-80.186,35.9-80.186,80.183"/>
	
		<text transform="matrix(1 0 0 1 -250.4059 60.5508)" style="display:inline;fill:#4D4D4D; font-family:'Lato-Light'; font-size:9.3266px;">20</text>
	
		<text transform="matrix(1 0 0 1 -99.5925 115.8843)" style="display:inline;fill:#4D4D4D; font-family:'Lato-Light'; font-size:9.3266px;">100</text>
	<path style="display:inline;fill:#9058E8;" d="M-170.694,103.63l21.054-77.504c-6.569-1.74-13.464-2.678-20.581-2.678
		c-27.499,0-51.756,13.849-66.201,34.946L-170.694,103.63z"/>
	
		<text transform="matrix(1 0 0 1 -152.1305 23.4478)" style="display:inline;fill:#4D4D4D; font-family:'Lato-Light'; font-size:9.3266px;">60</text>
	<path style="display:inline;fill:#4D4D4D;" d="M-174.458,100.83l55.387-48.207l-47.564,55.941
		c-1.973,2.321-5.455,2.603-7.775,0.629c-2.321-1.973-2.603-5.454-0.629-7.775C-174.865,101.213-174.654,101.004-174.458,100.83z"/>
	<g style="display:inline;">
		<text transform="matrix(1 0 0 1 -422.9284 0)" style="fill:#112F3F; font-family:'Lato-Bold'; font-size:14px;">Productvity</text>
	</g>
	<g style="display:inline;">
		<text transform="matrix(1 0 0 1 -426.8644 149.3403)" style="fill:#ED1E79; font-family:'Lato-Regular'; font-size:30.4664px;">68.4%</text>
	</g>
	<path style="display:inline;opacity:0.15;fill:#ED1E79;" d="M-304.37,103.63c0-44.283-35.901-80.183-80.185-80.183l0,0
		c-44.284,0-80.186,35.9-80.186,80.183"/>
	
		<text transform="matrix(1 0 0 1 -468.2814 115.8843)" style="display:inline;fill:#4D4D4D; font-family:'Lato-Light'; font-size:9.3266px;">0</text>
	
		<text transform="matrix(1 0 0 1 -313.9259 115.8843)" style="display:inline;fill:#4D4D4D; font-family:'Lato-Light'; font-size:9.3266px;">100</text>
	
		<text transform="matrix(1 0 0 1 -412.464 23.4463)" style="display:inline;fill:#4D4D4D; font-family:'Lato-Light'; font-size:9.3266px;">32</text>
	<path style="display:inline;fill:#ED1E79;" d="M-406.036,26.459c-33.849,9.393-58.704,40.249-58.704,77.249h79.525L-406.036,26.459
		z"/>
	<path style="display:inline;fill:#4D4D4D;" d="M-389.477,100.898l43.642-59.051l-34.33,64.909
		c-1.424,2.693-4.762,3.722-7.454,2.297c-2.693-1.424-3.722-4.762-2.297-7.455C-389.79,101.36-389.63,101.11-389.477,100.898z"/>
	<g style="display:inline;">
		<text transform="matrix(1 0 0 1 -903.8527 -91.1313)" style="fill:#333333; font-family:'Lato-Regular'; font-size:28.3047px;">Welcome to your dashboard Avi!</text>
	</g>
	
		<line style="display:inline;fill:none;stroke:#B3B3B3;stroke-width:0.9936;stroke-miterlimit:10;" x1="-903.853" y1="-34.993" x2="-57.169" y2="-34.993"/>
	<g style="display:inline;">
		<text transform="matrix(1 0 0 1 -454.4352 -47.186)"><tspan x="0" y="0" style="fill:#999999; font-family:'Lato-Bold'; font-size:12px;">Last Update:</tspan><tspan x="67.565" y="0" style="fill:#999999; font-family:'Lato-Light'; font-size:12px;"> </tspan><tspan x="70.823" y="0" style="fill:#999999; font-family:'Lato-LightItalic'; font-size:12px;">Thur, July 24th, 2015</tspan><tspan x="178.688" y="0" style="fill:#999999; font-family:'Lato-Light'; font-size:12px;"> / </tspan><tspan x="190.419" y="0" style="fill:#999999; font-family:'Lato-Bold'; font-size:12px;">Next Update:</tspan><tspan x="262.304" y="0" style="fill:#999999; font-family:'Lato-Light'; font-size:12px;"> </tspan><tspan x="265.562" y="0" style="fill:#999999; font-family:'Lato-LightItalic'; font-size:12px;">Thur, July 24th, 2016</tspan></text>
	</g>
	<g style="display:inline;">
		<text transform="matrix(1 0 0 1 -477.5758 548.3105)" style="fill:#112F3F; font-family:'Lato-Light'; font-size:14px;">SYSTEM NOTIFICATIONS</text>
	</g>
	<g style="display:inline;">
		<g>
			<text transform="matrix(1 0 0 1 -131.5143 547.6226)" style="fill:#112F3F; font-family:'Lato-Light'; font-size:11.6679px;">View all</text>
		</g>
		<path style="fill:#112F3F;" d="M-85.351,540.806c0.192-0.192,0.504-0.192,0.697,0l3.025,3.025
			c0.096,0.096,0.144,0.222,0.144,0.348c0,0.126-0.048,0.252-0.144,0.348l-3.025,3.025c-0.192,0.192-0.504,0.192-0.697,0
			c-0.192-0.192-0.192-0.504,0-0.697l2.677-2.677l-2.677-2.677C-85.543,541.31-85.543,540.998-85.351,540.806z"/>
		
			<line style="fill:none;stroke:#112F3F;stroke-width:0.487;stroke-miterlimit:10;" x1="-130.042" y1="551.208" x2="-93.042" y2="551.208"/>
	</g>
	<g style="display:inline;">
		<text transform="matrix(1 0 0 1 -865.1364 548.3105)" style="fill:#112F3F; font-family:'Lato-Light'; font-size:14px;">SYSTEM STATISTICS</text>
	</g>
	<g style="display:inline;">
		<text transform="matrix(1 0 0 1 -632.4782 547.6226)" style="fill:#112F3F; font-family:'Lato-Light'; font-size:11.6679px;">View all</text>
	</g>
	
		<line style="display:inline;fill:none;stroke:#B3B3B3;stroke-width:0.6128;stroke-miterlimit:10;" x1="-903.853" y1="561.455" x2="-581.768" y2="561.455"/>
	
		<line style="display:inline;fill:none;stroke:#B3B3B3;stroke-width:0.7435;stroke-miterlimit:10;" x1="-528.259" y1="561.455" x2="-54.17" y2="561.455"/>
	<g style="display:inline;">
		<g>
			<path style="fill:#112F3F;" d="M-586.315,540.806c0.192-0.192,0.504-0.192,0.697,0l3.025,3.025
				c0.096,0.096,0.144,0.222,0.144,0.348c0,0.126-0.048,0.252-0.144,0.348l-3.025,3.025c-0.192,0.192-0.504,0.192-0.697,0
				c-0.192-0.192-0.192-0.504,0-0.697l2.677-2.677l-2.677-2.677C-586.507,541.31-586.507,540.998-586.315,540.806z"/>
		</g>
	</g>
	
		<line style="display:inline;fill:none;stroke:#112F3F;stroke-width:0.487;stroke-miterlimit:10;" x1="-631.006" y1="551.208" x2="-594.006" y2="551.208"/>
	<g style="display:inline;">
		<path style="opacity:0.102;fill:#4D4D4D;" d="M-755.783,714.772H-900.54c-1.822,0-3.312-1.49-3.312-3.312V610.344
			c0-1.822,1.49-3.312,3.312-3.312h144.757c1.822,0,3.312,1.49,3.312,3.312V711.46
			C-752.471,713.282-753.961,714.772-755.783,714.772z"/>
		<path style="opacity:0.102;fill:#4D4D4D;" d="M-585.08,714.772h-144.757c-1.822,0-3.312-1.49-3.312-3.312V610.344
			c0-1.822,1.49-3.312,3.312-3.312h144.757c1.822,0,3.312,1.49,3.312,3.312V711.46C-581.768,713.282-583.258,714.772-585.08,714.772
			z"/>
		<path style="opacity:0.102;fill:#4D4D4D;" d="M-755.783,862.425H-900.54c-1.822,0-3.312-1.49-3.312-3.312V757.996
			c0-1.822,1.49-3.312,3.312-3.312h144.757c1.822,0,3.312,1.49,3.312,3.312v101.117
			C-752.471,860.934-753.961,862.425-755.783,862.425z"/>
		<path style="opacity:0.102;fill:#4D4D4D;" d="M-585.08,862.425h-144.757c-1.822,0-3.312-1.49-3.312-3.312V757.996
			c0-1.822,1.49-3.312,3.312-3.312h144.757c1.822,0,3.312,1.49,3.312,3.312v101.117
			C-581.768,860.934-583.258,862.425-585.08,862.425z"/>
		<path style="fill:#3399CC;" d="M-755.783,688.448H-900.54c-1.822,0-3.312-1.49-3.312-3.312V584.02c0-1.822,1.49-3.312,3.312-3.312
			h144.757c1.822,0,3.312,1.49,3.312,3.312v101.117C-752.471,686.958-753.961,688.448-755.783,688.448z"/>
		<path style="fill:#3399CC;" d="M-585.08,688.448h-144.757c-1.822,0-3.312-1.49-3.312-3.312V584.02c0-1.822,1.49-3.312,3.312-3.312
			h144.757c1.822,0,3.312,1.49,3.312,3.312v101.117C-581.768,686.958-583.258,688.448-585.08,688.448z"/>
		<path style="fill:#3399CC;" d="M-755.783,836.101H-900.54c-1.822,0-3.312-1.49-3.312-3.312V731.672
			c0-1.822,1.49-3.312,3.312-3.312h144.757c1.822,0,3.312,1.49,3.312,3.312v101.117
			C-752.471,834.61-753.961,836.101-755.783,836.101z"/>
		<path style="fill:#3399CC;" d="M-585.08,836.101h-144.757c-1.822,0-3.312-1.49-3.312-3.312V731.672
			c0-1.822,1.49-3.312,3.312-3.312h144.757c1.822,0,3.312,1.49,3.312,3.312v101.117C-581.768,834.61-583.258,836.101-585.08,836.101
			z"/>
		<g>
			<text transform="matrix(1 0 0 1 -855.5051 705.1389)" style="fill:#808080; font-family:'Lato-Light'; font-size:11.4075px;">Employees</text>
		</g>
		<text transform="matrix(1 0 0 1 -879.7819 658.6311)" style="fill:#FFFFFF; font-family:'Lato-Bold'; font-size:38.6461px;">12.5K</text>
		<path id="id-card-8-icon_3_" style="opacity:0.5;fill:#FFFFFF;" d="M-830.647,591.362v8.744h4.97v-8.744H-830.647z
			 M-828.162,596.699c-0.533,0-0.964-0.432-0.964-0.964c0-0.533,0.432-0.965,0.964-0.965s0.965,0.432,0.965,0.965
			C-827.197,596.267-827.629,596.699-828.162,596.699z M-815.203,597.59v19.689h-25.917V597.59h8.587v2.516h-6.07v14.657h20.885
			v-14.657h-6.07v-2.516H-815.203z M-820.173,608.86h-6.207v-1.887h6.207V608.86z M-824.241,612.425v-1.887h4.068v1.887H-824.241z
			 M-832.885,608.48c-1.812-3.336-0.517-5.228,1.429-5.228c1.908,0,3.236,1.822,1.429,5.228c-0.594,1.119,0.632,1.385,1.949,1.689
			c1.316,0.303,1.215,0.997,1.215,2.256h-9.185c0-1.259-0.101-1.953,1.215-2.256C-833.545,609.871-832.273,609.606-832.885,608.48z
			 M-820.173,605.296h-6.207v-1.887h6.207V605.296z"/>
		<g>
			<text transform="matrix(1 0 0 1 -877.1481 850.9065)" style="fill:#808080; font-family:'Lato-Light'; font-size:11.4075px;">Completed Surveys</text>
		</g>
		<text transform="matrix(1 0 0 1 -861.7824 802.6821)" style="fill:#FFFFFF; font-family:'Lato-Bold'; font-size:38.6461px;">665</text>
		<path id="debit-2-icon_2_" style="opacity:0.5;fill:#FFFFFF;" d="M-830.626,746.745h7.096l-1.439,1.442h-4.215v1.346h2.872
			l-1.439,1.442h-2.875L-830.626,746.745L-830.626,746.745z M-819.075,754.465v2.918h-21.781v-12.561h19.244l2.159-2.164h-23.566
			v16.888h26.108v-7.229L-819.075,754.465z M-832.068,749.534h-6.815v1.442h6.815V749.534z M-838.884,755.58h6.815v-1.442h-6.815
			V755.58z M-830.626,755.58h2.971v-1.442h-2.971V755.58L-830.626,755.58z M-832.068,746.745h-6.815v1.442h6.815V746.745z
			 M-825.293,751.184l3.412,3.41l-4.515,1.022L-825.293,751.184z M-813.305,746.13l-7.508,7.504l-3.516-3.514l7.508-7.504
			L-813.305,746.13z"/>
		<g>
			<text transform="matrix(1 0 0 1 -711.7267 853.3518)" style="fill:#808080; font-family:'Lato-Light'; font-size:11.4075px;">Time Spent on Emails</text>
		</g>
		<text transform="matrix(1 0 0 1 -711.5041 802.6821)" style="fill:#FFFFFF; font-family:'Lato-Bold'; font-size:38.6461px;">33.2%</text>
		<path id="time-3-icon_3_" style="opacity:0.5;fill:#FFFFFF;" d="M-657.458,739.59c-6.347,0-11.491,5.145-11.491,11.491
			s5.145,11.492,11.491,11.492s11.492-5.145,11.492-11.492S-651.112,739.59-657.458,739.59z M-657.458,760.063
			c-4.964,0-8.981-4.017-8.981-8.981c0-4.964,4.017-8.981,8.981-8.981c4.964,0,8.981,4.017,8.981,8.981
			C-648.477,756.045-652.494,760.063-657.458,760.063z M-650.384,751.627c0.095,0.017,0.165,0.099,0.165,0.196v0.005
			c0,0.096-0.068,0.178-0.163,0.195c-2.069,0.387-6.971,1.191-7.509,1.191c-0.77,0-1.395-0.624-1.395-1.395
			c0-0.548,0.825-5.839,1.206-7.982c0.015-0.086,0.09-0.149,0.177-0.149h0c0.095,0,0.177,0.069,0.191,0.164l1.056,6.689
			L-650.384,751.627z"/>
		<g>
			<text transform="matrix(1 0 0 1 -688.2297 705.1399)" style="fill:#808080; font-family:'Lato-Light'; font-size:11.4075px;">Email Trafc</text>
		</g>
		<text transform="matrix(1 0 0 1 -691.0798 658.1848)" style="fill:#FFFFFF; font-family:'Lato-Bold'; font-size:38.6461px;">980</text>
		<path id="email-2-icon_2_" style="opacity:0.5;fill:#FFFFFF;" d="M-668.164,598.327v15.841h0.018h21.341h0.052v-15.841H-668.164z
			 M-649.178,600.144l-8.283,6.335l-8.278-6.335H-649.178z M-666.348,601.966l4.438,3.397l-4.438,4.438V601.966z M-666.329,612.352
			l5.875-5.875l2.993,2.29l2.978-2.278l5.862,5.862L-666.329,612.352L-666.329,612.352z M-648.569,609.834l-4.458-4.458l4.458-3.41
			V609.834z"/>
	</g>
	<path id="light-bulb-17-icon_6_" style="display:inline;fill:#112F3F;" d="M-885.351,226.344h-4.9
		c-0.343,0-0.622,0.278-0.622,0.622c0,0.343,0.278,0.622,0.622,0.622h4.9c0.343,0,0.622-0.278,0.622-0.622
		C-884.729,226.622-885.008,226.344-885.351,226.344z M-885.463,228.414h-4.676c-0.343,0-0.622,0.278-0.622,0.622
		c0,0.343,0.278,0.622,0.622,0.622h4.676c0.343,0,0.622-0.278,0.622-0.622C-884.841,228.692-885.119,228.414-885.463,228.414z
		 M-890.107,230.455c1.211,1.119,1.335,1.344,1.819,1.344h0.931c0.472,0,0.589-0.208,1.863-1.344H-890.107z M-880.722,215.556
		c0,4.21-3.621,6.57-3.621,9.892h-6.916c0-3.323-3.621-5.682-3.621-9.892C-894.88,206.508-880.722,206.499-880.722,215.556z
		 M-886.905,207.007h-1.694v-3.048h1.694V207.007z M-881.089,205.578l-1.492-0.801l-1.49,2.778l1.492,0.801L-881.089,205.578z
		 M-876.758,209.773l-0.987-1.377l-2.71,1.942l0.987,1.377L-876.758,209.773z M-876.459,220.456l-3.049-1.235l-0.636,1.57
		l3.049,1.235L-876.459,220.456z M-875.445,214.47h-3.455v1.694h3.455V214.47z M-891.522,207.555l-1.49-2.778l-1.492,0.801
		l1.49,2.778L-891.522,207.555z M-895.14,210.338l-2.71-1.942l-0.987,1.377l2.71,1.942L-895.14,210.338z M-895.421,220.643
		l-0.694-1.545l-3.049,1.371l0.694,1.545L-895.421,220.643z M-896.694,214.47h-3.455v1.694h3.455V214.47z"/>
	<path id="light-bulb-17-icon_2_" style="display:inline;opacity:0.37;fill:#112F3F;" d="M-1053.827,4.185h-3.174
		c-0.222,0-0.403,0.18-0.403,0.403c0,0.222,0.18,0.403,0.403,0.403h3.174c0.222,0,0.403-0.18,0.403-0.403
		C-1053.425,4.366-1053.605,4.185-1053.827,4.185z M-1053.9,5.526h-3.029c-0.222,0-0.403,0.18-0.403,0.403s0.18,0.403,0.403,0.403
		h3.029c0.222,0,0.403-0.18,0.403-0.403S-1053.677,5.526-1053.9,5.526z M-1056.908,6.848c0.784,0.725,0.865,0.87,1.178,0.87h0.603
		c0.306,0,0.381-0.135,1.206-0.87H-1056.908z M-1050.829-2.801c0,2.727-2.345,4.255-2.345,6.407h-4.479
		c0-2.152-2.345-3.68-2.345-6.407C-1059.999-8.662-1050.829-8.668-1050.829-2.801z M-1054.834-8.339h-1.097v-1.974h1.097V-8.339z
		 M-1051.067-9.264l-0.967-0.519l-0.965,1.799l0.967,0.519L-1051.067-9.264z M-1048.262-6.547l-0.639-0.892l-1.755,1.258
		l0.639,0.892L-1048.262-6.547z M-1048.068,0.372l-1.974-0.8l-0.412,1.017l1.974,0.8L-1048.068,0.372z M-1047.412-3.505h-2.238
		v1.097h2.238V-3.505z M-1057.824-7.984l-0.965-1.799l-0.967,0.519l0.965,1.799L-1057.824-7.984z M-1060.167-6.181l-1.755-1.258
		l-0.639,0.892l1.755,1.258L-1060.167-6.181z M-1060.349,0.493l-0.45-1l-1.974,0.888l0.45,1L-1060.349,0.493z M-1061.174-3.505
		h-2.238v1.097h2.238V-3.505z"/>
	<path id="flip-chart-2_1_" style="display:inline;fill:#112F3F;" d="M-883.211,552.354l3.489,4.087h-2.684l-3.495-4.087H-883.211
		L-883.211,552.354z M-881.666,538.048h-4.087v1.022h4.087V538.048z M-888.819,556.442h2.044v-4.087h-2.044V556.442
		L-888.819,556.442z M-895.889,556.442h2.685l3.495-4.087h-2.69L-895.889,556.442z M-881.666,540.092h-4.087v1.022h4.087V540.092z
		 M-881.666,542.135h-4.087v1.022h4.087V542.135z M-890.352,545.201c1.8,0,3.275-1.334,3.525-3.066h-4.036v-4.036
		c-1.731,0.25-3.066,1.725-3.066,3.525C-893.928,543.6-892.327,545.201-890.352,545.201z M-889.841,538.099v3.014h3.014
		C-887.053,539.551-888.278,538.325-889.841,538.099z M-881.666,544.179h-4.087v1.022h4.087V544.179z M-876.557,534.982h-1.022
		v15.328h-20.437v-15.328h-1.022v-3.066h22.481V534.982L-876.557,534.982z M-879.622,534.982h-16.35v13.284h16.35V534.982
		L-879.622,534.982z"/>
	<path id="megaphone-3-icon_1_" style="display:inline;fill:#112F3F;" d="M-493.761,539.723l-2.749,1.457l-0.684-1.291l2.749-1.457
		L-493.761,539.723z M-498.063,538.463l-1.292-0.681l1.485-2.817l1.292,0.681L-498.063,538.463z M-492.813,544.493l-3.166-0.341
		l0.156-1.452l3.171,0.342L-492.813,544.493z M-504.793,550.168l1.671-0.329l-0.654,2.137c-0.119,0.389-0.442,0.681-0.84,0.76
		l-3.109,0.636c-0.386,0.077-0.784-0.057-1.044-0.352l-1.542-1.747l1.68-0.331l0.638,0.723c0.172,0.195,0.435,0.284,0.691,0.234
		l1.684-0.349c0.265-0.052,0.479-0.246,0.558-0.504L-504.793,550.168z M-513.772,547.283c-0.506,0.503-1.174,0.81-1.886,0.866
		l-0.843,0.066l2.236,4.204l0.526-0.662c0.444-0.558,1.072-0.941,1.773-1.079l16.212-3.196l-6.303-11.854L-513.772,547.283z"/>
	<g style="display:inline;">
		<g>
			<text transform="matrix(1 0 0 1 -865.1369 -43.3008)" style="fill:#112F3F; font-family:'Lato-Light'; font-size:14px;">OVERVIEW</text>
		</g>
	</g>
	<path id="dashboard-3-icon_5_" style="display:inline;fill:#112F3F;" d="M-874.84-51.463c0-7.156-5.801-12.957-12.957-12.957
		c-7.156,0-12.957,5.801-12.957,12.957c0,2.789,0.881,5.372,2.38,7.486h4.705c1.004,1.779,3.255,3.018,5.871,3.018
		c2.616,0,4.867-1.239,5.871-3.018h4.705C-875.722-46.091-874.84-48.674-874.84-51.463z M-879.691-58.413l-2.379,2.379
		c-0.341-0.427-0.729-0.815-1.156-1.156l2.378-2.378C-880.434-59.214-880.046-58.826-879.691-58.413z M-884.475-61.614
		c0.517,0.169,1.024,0.38,1.51,0.627l-1.288,3.108c-0.478-0.265-0.985-0.475-1.511-0.626L-884.475-61.614z M-888.615-62.109
		c0.276-0.021,0.55-0.032,0.818-0.032c0.267,0,0.542,0.011,0.818,0.032v3.363c-0.271-0.03-0.546-0.045-0.818-0.045
		s-0.546,0.015-0.818,0.045V-62.109z M-889.017-50.837l1.219-5.716l1.219,5.716c0.777,0.43,1.303,1.257,1.303,2.208
		c0,1.393-1.129,2.522-2.523,2.522s-2.523-1.129-2.523-2.522C-890.32-49.579-889.793-50.407-889.017-50.837z M-891.16-61.6
		l1.301,3.103c-0.524,0.153-1.03,0.366-1.508,0.633l-1.301-3.103C-892.183-61.216-891.677-61.429-891.16-61.6z M-894.747-59.569
		l2.379,2.379c-0.427,0.341-0.815,0.729-1.156,1.156l-2.378-2.379C-895.548-58.826-895.16-59.214-894.747-59.569z M-897.948-54.784
		c0.169-0.517,0.379-1.024,0.627-1.51l3.108,1.288c-0.265,0.478-0.475,0.985-0.626,1.511L-897.948-54.784z M-880.787-53.606
		c-0.159-0.522-0.378-1.025-0.65-1.5l3.088-1.337c0.254,0.481,0.472,0.985,0.65,1.501L-880.787-53.606z"/>
	<g style="display:inline;">
		<rect x="-481.515" y="583.403" style="fill:none;" width="316.624" height="29.578"/>
		<text transform="matrix(1 0 0 1 -481.5143 595.4185)"><tspan x="0" y="0" style="fill:#112F3F; font-family:'Lato-Regular'; font-size:14px;">Sed ut perspiciats unde omnis</tspan><tspan x="0" y="14.399" style="fill:#112F3F; font-family:'Lato-Light'; font-size:12px;">iste natus error sit voluptatem accusantum doloremque </tspan></text>
	</g>
	<path style="display:inline;fill:#112F3F;" d="M-85.351,595.108c0.192-0.192,0.504-0.192,0.697,0l3.025,3.025
		c0.096,0.096,0.144,0.222,0.144,0.348c0,0.126-0.048,0.252-0.144,0.348l-3.025,3.025c-0.192,0.192-0.504,0.192-0.697,0
		c-0.192-0.192-0.192-0.504,0-0.697l2.677-2.677l-2.677-2.677C-85.543,595.613-85.543,595.301-85.351,595.108z"/>
	<g style="display:inline;">
		<rect x="-527.17" y="580.708" style="fill:#3399CC;" width="36" height="36"/>
	</g>
	<g style="display:inline;">
		<g>
			<rect x="-527.17" y="625.708" style="fill:#7AC943;" width="36" height="36"/>
		</g>
	</g>
	<g style="display:inline;">
		<rect x="-527.17" y="670.708" style="fill:#F89838;" width="36" height="36"/>
	</g>
	<g style="display:inline;">
		<g>
			<rect x="-527.17" y="715.708" style="fill:#9058E8;" width="36" height="36"/>
		</g>
	</g>
	<g style="display:inline;">
		<rect x="-527.17" y="760.708" style="fill:#ED1E79;" width="36" height="36"/>
	</g>
	<g style="display:inline;">
		<rect x="-481.515" y="628.403" style="fill:none;" width="325" height="29.578"/>
		<text transform="matrix(1 0 0 1 -481.5153 640.4185)"><tspan x="0" y="0" style="fill:#112F3F; font-family:'Lato-Regular'; font-size:14px;">Sed ut perspiciats unde omnis</tspan><tspan x="0" y="14.399" style="fill:#112F3F; font-family:'Lato-Light'; font-size:12px;">iste natus error sit voluptatem accusantum doloremque </tspan></text>
	</g>
	<path style="display:inline;fill:#112F3F;" d="M-85.351,640.108c0.192-0.192,0.504-0.192,0.697,0l3.025,3.025
		c0.096,0.096,0.144,0.222,0.144,0.348c0,0.126-0.048,0.252-0.144,0.348l-3.025,3.025c-0.192,0.192-0.504,0.192-0.697,0
		c-0.192-0.192-0.192-0.504,0-0.697l2.677-2.677l-2.677-2.677C-85.543,640.613-85.543,640.301-85.351,640.108z"/>
	<g style="display:inline;">
		<rect x="-481.515" y="673.403" style="fill:none;" width="325" height="29.578"/>
		<text transform="matrix(1 0 0 1 -481.5153 685.4185)"><tspan x="0" y="0" style="fill:#112F3F; font-family:'Lato-Regular'; font-size:14px;">Sed ut perspiciats unde omnis</tspan><tspan x="0" y="14.399" style="fill:#112F3F; font-family:'Lato-Light'; font-size:12px;">iste natus error sit voluptatem accusantum doloremque </tspan></text>
	</g>
	<path style="display:inline;fill:#112F3F;" d="M-85.351,685.108c0.192-0.192,0.504-0.192,0.697,0l3.025,3.025
		c0.096,0.096,0.144,0.222,0.144,0.348c0,0.126-0.048,0.252-0.144,0.348l-3.025,3.025c-0.192,0.192-0.504,0.192-0.697,0
		c-0.192-0.192-0.192-0.504,0-0.697l2.677-2.677l-2.677-2.677C-85.543,685.613-85.543,685.301-85.351,685.108z"/>
	<g style="display:inline;">
		<rect x="-481.515" y="718.403" style="fill:none;" width="325" height="29.578"/>
		<text transform="matrix(1 0 0 1 -481.5153 730.4185)"><tspan x="0" y="0" style="fill:#112F3F; font-family:'Lato-Regular'; font-size:14px;">Sed ut perspiciats unde omnis</tspan><tspan x="0" y="14.399" style="fill:#112F3F; font-family:'Lato-Light'; font-size:12px;">iste natus error sit voluptatem accusantum doloremque </tspan></text>
	</g>
	<path style="display:inline;fill:#112F3F;" d="M-85.351,730.108c0.192-0.192,0.504-0.192,0.697,0l3.025,3.025
		c0.096,0.096,0.144,0.222,0.144,0.348c0,0.126-0.048,0.252-0.144,0.348l-3.025,3.025c-0.192,0.192-0.504,0.192-0.697,0
		c-0.192-0.192-0.192-0.504,0-0.697l2.677-2.677l-2.677-2.677C-85.543,730.613-85.543,730.301-85.351,730.108z"/>
	<g style="display:inline;">
		<rect x="-481.515" y="763.403" style="fill:none;" width="325" height="29.578"/>
		<text transform="matrix(1 0 0 1 -481.5153 775.4185)"><tspan x="0" y="0" style="fill:#112F3F; font-family:'Lato-Regular'; font-size:14px;">Sed ut perspiciats unde omnis</tspan><tspan x="0" y="14.399" style="fill:#112F3F; font-family:'Lato-Light'; font-size:12px;">iste natus error sit voluptatem accusantum doloremque </tspan></text>
	</g>
	<path style="display:inline;fill:#112F3F;" d="M-85.351,775.108c0.192-0.192,0.504-0.192,0.697,0l3.025,3.025
		c0.096,0.096,0.144,0.222,0.144,0.348c0,0.126-0.048,0.252-0.144,0.348l-3.025,3.025c-0.192,0.192-0.504,0.192-0.697,0
		c-0.192-0.192-0.192-0.504,0-0.697l2.677-2.677l-2.677-2.677C-85.543,775.613-85.543,775.301-85.351,775.108z"/>
	<g style="display:inline;">
		<g>
			<path style="fill:#FFFFFF;" d="M-516.324,685.953h6.053c0.153,0,0.277-0.124,0.277-0.277v-6.053c0-0.153-0.124-0.277-0.277-0.277
				h-6.053c-0.153,0-0.277,0.124-0.277,0.277v6.053C-516.601,685.829-516.477,685.953-516.324,685.953z"/>
			<path style="fill:#FFFFFF;" d="M-513.102,689.947c-0.108-0.108-0.283-0.108-0.391,0l-3.599,3.599
				c-0.108,0.108-0.108,0.283,0,0.391l3.599,3.599c0.054,0.054,0.125,0.081,0.196,0.081s0.142-0.027,0.196-0.081l3.599-3.599
				c0.108-0.108,0.108-0.283,0-0.391L-513.102,689.947z"/>
			<path style="fill:#FFFFFF;" d="M-504.447,685.945h3.486c0.099,0,0.19-0.053,0.24-0.138l1.743-3.018
				c0.049-0.086,0.049-0.191,0-0.277l-1.743-3.019c-0.049-0.086-0.141-0.138-0.24-0.138h-3.486c-0.099,0-0.19,0.053-0.24,0.138
				l-1.743,3.019c-0.049,0.086-0.049,0.191,0,0.277l1.743,3.018C-504.638,685.892-504.546,685.945-504.447,685.945z"/>
			<path style="fill:#FFFFFF;" d="M-502.462,690.222c-1.941,0-3.52,1.579-3.52,3.519c0,1.941,1.579,3.52,3.52,3.52
				s3.52-1.579,3.52-3.52C-498.942,691.801-500.521,690.222-502.462,690.222z"/>
			<path style="fill:#FFFFFF;" d="M-513.574,686.35c-0.107,0-0.194,0.087-0.194,0.194v2.547c0,0.107,0.087,0.194,0.194,0.194h0.443
				c0.107,0,0.194-0.087,0.194-0.194v-2.547c0-0.107-0.087-0.194-0.194-0.194H-513.574z"/>
			<path style="fill:#FFFFFF;" d="M-502.739,686.442c-0.107,0-0.194,0.087-0.194,0.194v2.547c0,0.107,0.087,0.194,0.194,0.194h0.443
				c0.107,0,0.194-0.087,0.194-0.194v-2.547c0-0.107-0.087-0.194-0.194-0.194H-502.739z"/>
			<path style="fill:#FFFFFF;" d="M-507.158,682.299h-1.933c-0.107,0-0.194,0.087-0.194,0.194v0.443
				c0,0.107,0.087,0.194,0.194,0.194h1.933c0.107,0,0.194-0.087,0.194-0.194v-0.443
				C-506.964,682.386-507.051,682.299-507.158,682.299z"/>
		</g>
	</g>
	<g style="display:inline;">
		<g>
			<path style="fill:#FFFFFF;" d="M-512.937,787.459h-3.573c-0.151,0-0.275-0.124-0.275-0.275v-4.947
				c0-0.151,0.124-0.275,0.275-0.275h3.573c0.151,0,0.275,0.124,0.275,0.275v4.947
				C-512.662,787.335-512.786,787.459-512.937,787.459z M-506.341,787.184v-8.795c0-0.151-0.124-0.275-0.275-0.275h-3.573
				c-0.151,0-0.275,0.124-0.275,0.275v8.795c0,0.151,0.124,0.275,0.275,0.275h3.573
				C-506.464,787.459-506.341,787.335-506.341,787.184z M-499.387,774.403l-2.731-4.729c-0.131-0.227-0.345-0.227-0.476,0
				l-2.73,4.729c-0.131,0.227-0.024,0.412,0.238,0.412h0.944v12.368c0,0.151,0.124,0.275,0.275,0.275h3.023
				c0.151,0,0.275-0.124,0.275-0.275v-12.368h0.944C-499.363,774.816-499.256,774.63-499.387,774.403z"/>
		</g>
	</g>
	<path style="display:inline;fill:#FFFFFF;" d="M-496.828,738.606c-5,0-9.068-3.901-9.347-8.797c0.002-0.056,0.012-0.11,0.014-0.166
		h2.582c0.186,0,0.351-0.113,0.421-0.283c0.07-0.168,0.03-0.364-0.099-0.498l-5.076-5.052c-0.176-0.176-0.463-0.176-0.64,0.003
		l-5.06,5.052c-0.136,0.13-0.174,0.324-0.099,0.495c0.066,0.17,0.233,0.283,0.416,0.283h2.877v0h-0.028
		c0.002,0.056,0.011,0.11,0.014,0.166c-0.28,4.896-4.347,8.797-9.347,8.797c-0.255,0-0.456,0.204-0.456,0.456v3.767
		c0.001,0.252,0.241,0.454,0.491,0.454c4.859,0,9.137-2.494,11.652-6.283c2.515,3.79,6.793,6.284,11.652,6.284
		c0.25,0,0.49-0.203,0.491-0.454v-3.768C-496.372,738.81-496.573,738.606-496.828,738.606z"/>
	<path id="award-17_2_" style="display:inline;fill:#FFFFFF;" d="M-504.622,638.355c4.254,5.606-2.109,11.968-7.714,7.714
		c-0.027-0.02-0.051-0.045-0.071-0.071c-4.254-5.606,2.108-11.968,7.714-7.714C-504.666,638.304-504.642,638.328-504.622,638.355z
		 M-500.056,643.917l-1.083,0.668c-0.141,0.087-0.204,0.26-0.153,0.417l0.392,1.195c0.067,0.203-0.058,0.419-0.267,0.463
		l-1.258,0.265c-0.161,0.034-0.279,0.174-0.285,0.338l-0.045,1.259c-0.008,0.212-0.197,0.372-0.407,0.343l-1.28-0.175
		c-0.162-0.022-0.318,0.068-0.381,0.219l-0.484,1.175c-0.08,0.195-0.311,0.279-0.498,0.182l-1.147-0.598
		c-0.144-0.075-0.321-0.044-0.431,0.076l-0.867,0.947c-0.142,0.155-0.387,0.155-0.529,0l-0.867-0.947
		c-0.11-0.12-0.287-0.151-0.431-0.076l-1.147,0.598c-0.187,0.098-0.418,0.014-0.498-0.182l-0.484-1.175
		c-0.062-0.151-0.219-0.241-0.381-0.219l-1.28,0.175c-0.21,0.029-0.4-0.13-0.407-0.343l-0.045-1.259
		c-0.006-0.165-0.123-0.304-0.285-0.338l-1.258-0.265c-0.209-0.044-0.334-0.26-0.267-0.463l0.392-1.195
		c0.052-0.158-0.011-0.33-0.153-0.417l-1.083-0.668c-0.183-0.113-0.226-0.36-0.093-0.528l0.783-0.99c0.103-0.13,0.103-0.315,0-0.445
		l-0.783-0.99c-0.133-0.168-0.09-0.415,0.093-0.528l1.083-0.668c0.141-0.087,0.204-0.26,0.153-0.417l-0.392-1.195
		c-0.067-0.203,0.058-0.419,0.267-0.463l1.258-0.265c0.161-0.034,0.279-0.174,0.285-0.338l0.045-1.26
		c0.008-0.212,0.197-0.372,0.408-0.343l1.28,0.176c0.162,0.022,0.318-0.068,0.381-0.219l0.484-1.175
		c0.08-0.195,0.311-0.279,0.498-0.182l1.147,0.598c0.144,0.075,0.321,0.044,0.431-0.076l0.867-0.946
		c0.142-0.155,0.387-0.155,0.529,0l0.867,0.946c0.11,0.12,0.286,0.151,0.431,0.076l1.147-0.598c0.187-0.098,0.418-0.013,0.498,0.182
		l0.484,1.175c0.062,0.151,0.219,0.241,0.381,0.219l1.28-0.176c0.21-0.029,0.4,0.13,0.408,0.343l0.045,1.26
		c0.006,0.165,0.123,0.304,0.285,0.338l1.258,0.265c0.209,0.044,0.334,0.26,0.267,0.463l-0.392,1.195
		c-0.052,0.158,0.011,0.33,0.153,0.417l1.083,0.668c0.183,0.113,0.226,0.36,0.093,0.528l-0.783,0.99
		c-0.103,0.13-0.103,0.315,0,0.445l0.783,0.99C-499.829,643.558-499.873,643.805-500.056,643.917z M-503.969,646.65
		c4.95-6.573-2.446-13.968-9.018-9.018c-0.027,0.021-0.052,0.045-0.073,0.073c-4.949,6.573,2.446,13.967,9.018,9.018
		C-504.015,646.702-503.99,646.677-503.969,646.65z M-504.256,650.8l1.581,2.452c0.146,0.226,0.479,0.217,0.613-0.016l0.612-1.068
		c0.064-0.112,0.183-0.181,0.311-0.181h1.168c0.284,0,0.456-0.315,0.301-0.554l-1.736-2.683c-0.123-0.189-0.388-0.221-0.55-0.064
		c-0.646,0.626-1.375,1.166-2.169,1.603C-504.308,650.391-504.369,650.624-504.256,650.8z M-515.624,648.751l-1.736,2.683
		c-0.155,0.239,0.017,0.554,0.301,0.554h1.168c0.129,0,0.247,0.069,0.311,0.181l0.612,1.068c0.134,0.234,0.467,0.242,0.613,0.016
		l1.581-2.452c0.113-0.176,0.052-0.41-0.131-0.511c-0.795-0.437-1.523-0.977-2.169-1.603
		C-515.237,648.53-515.502,648.561-515.624,648.751z"/>
	<path id="dashboard-3-icon_3_" style="display:inline;fill:#FFFFFF;" d="M-497.745,599.501c0-5.948-4.822-10.769-10.769-10.769
		c-5.948,0-10.769,4.822-10.769,10.769c0,2.318,0.733,4.465,1.979,6.222h3.911c0.835,1.478,2.706,2.508,4.88,2.508
		s4.045-1.03,4.88-2.508h3.911C-498.478,603.966-497.745,601.819-497.745,599.501z M-501.777,593.725l-1.977,1.977
		c-0.284-0.355-0.606-0.677-0.961-0.961l1.977-1.977C-502.395,593.059-502.072,593.381-501.777,593.725z M-505.753,591.064
		c0.429,0.141,0.851,0.315,1.255,0.521l-1.071,2.583c-0.398-0.22-0.819-0.395-1.256-0.521L-505.753,591.064z M-509.194,590.652
		c0.229-0.017,0.457-0.026,0.68-0.026c0.222,0,0.45,0.009,0.68,0.026v2.796c-0.226-0.025-0.454-0.038-0.68-0.038
		s-0.454,0.013-0.68,0.038V590.652z M-509.528,600.022l1.014-4.751l1.014,4.751c0.646,0.357,1.083,1.045,1.083,1.836
		c0,1.158-0.939,2.097-2.097,2.097c-1.158,0-2.097-0.939-2.097-2.097C-510.611,601.067-510.174,600.379-509.528,600.022z
		 M-511.31,591.076l1.081,2.579c-0.436,0.128-0.856,0.304-1.253,0.526l-1.081-2.579C-512.16,591.395-511.739,591.218-511.31,591.076
		z M-514.291,592.764l1.977,1.977c-0.355,0.284-0.677,0.606-0.961,0.961l-1.977-1.977
		C-514.957,593.381-514.635,593.059-514.291,592.764z M-516.952,596.741c0.141-0.43,0.315-0.851,0.521-1.255l2.584,1.07
		c-0.22,0.398-0.395,0.819-0.521,1.256L-516.952,596.741z M-502.688,597.72c-0.132-0.434-0.314-0.852-0.541-1.247l2.567-1.111
		c0.211,0.4,0.392,0.818,0.54,1.247L-502.688,597.72z"/>
	<rect x="-744.842" y="-299.082" style="display:inline;fill:#1F5D75;" width="107.478" height="107.478"/>
	<rect x="-529.168" y="-299.082" style="display:inline;fill:#FFFFFF;" width="107.478" height="107.478"/>
	<rect x="-529.168" y="-299.082" style="display:inline;fill:#333333;" width="107.478" height="107.478"/>
	<rect x="-637.148" y="-299.082" style="display:inline;fill:#333333;" width="107.478" height="107.478"/>
	<rect x="-421.187" y="-299.082" style="display:inline;fill:#333333;" width="107.478" height="107.478"/>
	<rect x="-313.207" y="-299.082" style="display:inline;fill:#333333;" width="107.478" height="107.478"/>
	<rect x="-638.148" y="-299.082" style="display:inline;fill:#F89838;" width="107.98" height="7.168"/>
	<rect x="-530.419" y="-299.082" style="display:inline;fill:#7AC943;" width="107.98" height="7.168"/>
	<rect x="-422.439" y="-299.082" style="display:inline;fill:#ED1E79;" width="107.98" height="7.168"/>
	<rect x="-314.458" y="-299.082" style="display:inline;fill:#9058E8;" width="107.98" height="7.168"/>
	<rect x="-746.093" y="-299.082" style="display:inline;fill:#3399CC;" width="107.98" height="7.168"/>
	
		<text transform="matrix(1 0 0 1 -720.679 -209.4312)" style="display:inline;fill:#FFFFFF; font-family:'Lato-Bold'; font-size:12.2329px;">Dashboard</text>
	
		<text transform="matrix(1 0 0 1 -610.5875 -209.4312)" style="display:inline;fill:#FFFFFF; font-family:'Lato-Bold'; font-size:12.2329px;">Workfow</text>
	
		<text transform="matrix(1 0 0 1 -503.2151 -209.4312)" style="display:inline;fill:#FFFFFF; font-family:'Lato-Bold'; font-size:12.2329px;">Top Talent</text>
	
		<text transform="matrix(1 0 0 1 -398.2444 -209.147)" style="display:inline;fill:#FFFFFF; font-family:'Lato-Bold'; font-size:11.2358px;">Productvity</text>
	
		<text transform="matrix(1 0 0 1 -293.2928 -209.147)" style="display:inline;fill:#FFFFFF; font-family:'Lato-Bold'; font-size:11.2358px;">Collaboraton</text>
	<g style="display:inline;opacity:0.5;">
		<g>
			<path style="fill:#FFFFFF;" d="M-600.6-260.362h12.588c0.318,0,0.576-0.258,0.576-0.576v-12.588c0-0.318-0.258-0.576-0.576-0.576
				H-600.6c-0.318,0-0.576,0.258-0.576,0.576v12.588C-601.176-260.619-600.919-260.362-600.6-260.362z"/>
			<path style="fill:#FFFFFF;" d="M-593.899-252.055c-0.225-0.225-0.589-0.225-0.814,0l-7.485,7.485
				c-0.225,0.225-0.225,0.589,0,0.814l7.485,7.485c0.112,0.112,0.26,0.169,0.407,0.169s0.295-0.056,0.407-0.169l7.485-7.485
				c0.225-0.225,0.225-0.589,0-0.814L-593.899-252.055z"/>
			<path style="fill:#FFFFFF;" d="M-575.901-260.378h7.249c0.206,0,0.396-0.11,0.499-0.288l3.624-6.278
				c0.103-0.178,0.103-0.398,0-0.576l-3.624-6.278c-0.103-0.178-0.293-0.288-0.499-0.288h-7.249c-0.206,0-0.396,0.11-0.499,0.288
				l-3.624,6.278c-0.103,0.178-0.103,0.398,0,0.576l3.624,6.278C-576.296-260.488-576.107-260.378-575.901-260.378z"/>
			<path style="fill:#FFFFFF;" d="M-571.771-251.481c-4.036,0-7.32,3.283-7.32,7.319c0,4.036,3.284,7.32,7.32,7.32
				c4.036,0,7.32-3.284,7.32-7.32C-564.452-248.198-567.735-251.481-571.771-251.481z"/>
			<path style="fill:#FFFFFF;" d="M-594.882-259.535c-0.223,0-0.403,0.18-0.403,0.403v5.297c0,0.223,0.18,0.403,0.403,0.403h0.921
				c0.223,0,0.403-0.18,0.403-0.403v-5.297c0-0.223-0.18-0.403-0.403-0.403H-594.882z"/>
			<path style="fill:#FFFFFF;" d="M-572.347-259.343c-0.223,0-0.403,0.18-0.403,0.403v5.297c0,0.223,0.18,0.403,0.403,0.403h0.921
				c0.223,0,0.403-0.18,0.403-0.403v-5.297c0-0.223-0.18-0.403-0.403-0.403H-572.347z"/>
			<path style="fill:#FFFFFF;" d="M-581.538-267.96h-4.021c-0.223,0-0.403,0.18-0.403,0.403v0.921c0,0.223,0.18,0.403,0.403,0.403
				h4.021c0.222,0,0.403-0.18,0.403-0.403v-0.921C-581.135-267.779-581.316-267.96-581.538-267.96z"/>
		</g>
	</g>
	<g style="display:inline;opacity:0.5;">
		<g>
			<path style="fill:#FFFFFF;" d="M-379.391-233.129h-8.746c-0.37,0-0.673-0.303-0.673-0.673v-12.109
				c0-0.37,0.303-0.673,0.673-0.673h8.746c0.37,0,0.673,0.303,0.673,0.673v12.109C-378.718-233.431-379.021-233.129-379.391-233.129
				z M-363.245-233.802v-21.528c0-0.37-0.303-0.673-0.673-0.673h-8.746c-0.37,0-0.673,0.303-0.673,0.673v21.528
				c0,0.37,0.303,0.673,0.673,0.673h8.746C-363.548-233.129-363.245-233.431-363.245-233.802z M-346.224-265.084l-6.684-11.574
				c-0.32-0.555-0.845-0.555-1.165,0l-6.683,11.574c-0.32,0.555-0.059,1.009,0.583,1.009h2.311v30.273
				c0,0.37,0.303,0.673,0.673,0.673h7.4c0.37,0,0.673-0.303,0.673-0.673v-30.273h2.311
				C-346.166-264.075-345.904-264.529-346.224-265.084z"/>
		</g>
	</g>
	<path style="display:inline;opacity:0.5;fill:#FFFFFF;" d="M-236.369-244.973c-9.883,0-17.922-7.71-18.475-17.387
		c0.005-0.111,0.023-0.218,0.027-0.329h5.104c0.367,0,0.694-0.223,0.833-0.56c0.139-0.333,0.059-0.72-0.195-0.983l-10.033-9.984
		c-0.347-0.347-0.915-0.347-1.265,0.006l-10.002,9.984c-0.269,0.257-0.344,0.641-0.195,0.978c0.13,0.336,0.46,0.56,0.821,0.56h5.686
		v0h-0.056c0.004,0.111,0.022,0.218,0.027,0.328c-0.552,9.677-8.592,17.387-18.474,17.387c-0.503,0-0.901,0.403-0.901,0.901v7.446
		c0.001,0.497,0.476,0.898,0.97,0.898c9.603,0,18.06-4.929,23.03-12.419c4.97,7.49,13.426,12.419,23.03,12.419
		c0.495,0,0.969-0.401,0.97-0.898v-7.446C-235.468-244.569-235.865-244.973-236.369-244.973z"/>
	<rect x="-204.979" y="-299.082" style="display:inline;fill:#333333;" width="107.478" height="107.478"/>
	<rect x="-205.979" y="-299.082" style="display:inline;fill:#EDC607;" width="107.478" height="7.168"/>
	<path id="award-17_3_" style="display:inline;opacity:0.5;fill:#FFFFFF;" d="M-466.877-266.363
		c9.344,12.315-4.632,26.291-16.946,16.946c-0.059-0.045-0.112-0.098-0.157-0.157c-9.344-12.314,4.632-26.291,16.946-16.946
		C-466.975-266.475-466.922-266.422-466.877-266.363z M-456.846-254.144l-2.38,1.468c-0.31,0.191-0.449,0.57-0.335,0.917l0.86,2.624
		c0.146,0.446-0.127,0.92-0.587,1.017l-2.764,0.583c-0.354,0.075-0.612,0.381-0.625,0.743l-0.099,2.766
		c-0.017,0.466-0.433,0.816-0.895,0.753l-2.812-0.385c-0.356-0.049-0.699,0.149-0.836,0.481l-1.063,2.581
		c-0.177,0.429-0.683,0.613-1.094,0.399l-2.52-1.315c-0.317-0.165-0.705-0.097-0.946,0.167l-1.904,2.079
		c-0.313,0.341-0.85,0.341-1.163,0l-1.904-2.079c-0.241-0.263-0.63-0.332-0.946-0.167l-2.52,1.315
		c-0.411,0.214-0.917,0.03-1.094-0.399l-1.063-2.581c-0.137-0.332-0.48-0.53-0.836-0.481l-2.812,0.385
		c-0.462,0.063-0.878-0.287-0.895-0.753l-0.099-2.766c-0.013-0.362-0.271-0.669-0.625-0.743l-2.764-0.583
		c-0.459-0.097-0.733-0.571-0.587-1.017l0.86-2.624c0.114-0.346-0.025-0.725-0.335-0.917l-2.38-1.468
		c-0.402-0.248-0.497-0.79-0.204-1.16l1.72-2.174c0.227-0.287,0.227-0.692,0-0.978l-1.72-2.174c-0.293-0.37-0.197-0.913,0.204-1.16
		l2.38-1.468c0.31-0.191,0.449-0.57,0.335-0.917l-0.86-2.624c-0.146-0.446,0.127-0.92,0.587-1.017l2.764-0.582
		c0.354-0.075,0.613-0.381,0.626-0.743l0.099-2.767c0.017-0.466,0.433-0.816,0.895-0.753l2.811,0.386
		c0.356,0.049,0.7-0.149,0.836-0.481l1.063-2.582c0.176-0.429,0.683-0.613,1.094-0.399l2.52,1.314
		c0.317,0.165,0.705,0.097,0.946-0.167l1.904-2.079c0.313-0.341,0.85-0.341,1.163,0l1.904,2.079
		c0.241,0.263,0.629,0.332,0.946,0.167l2.52-1.314c0.411-0.214,0.917-0.03,1.094,0.399l1.063,2.582
		c0.137,0.332,0.481,0.53,0.836,0.481l2.811-0.386c0.462-0.063,0.878,0.286,0.895,0.753l0.099,2.767
		c0.013,0.362,0.271,0.669,0.626,0.743l2.764,0.582c0.459,0.097,0.733,0.571,0.587,1.017l-0.86,2.624
		c-0.113,0.346,0.025,0.725,0.335,0.917l2.38,1.468c0.402,0.248,0.497,0.79,0.204,1.16l-1.72,2.174
		c-0.227,0.287-0.227,0.692,0,0.978l1.72,2.174C-456.349-254.935-456.445-254.392-456.846-254.144z M-465.444-248.143
		c10.873-14.438-5.372-30.684-19.811-19.81c-0.06,0.045-0.115,0.1-0.16,0.16c-10.872,14.438,5.373,30.683,19.811,19.81
		C-465.544-248.028-465.489-248.082-465.444-248.143z M-466.073-239.025l3.474,5.387c0.32,0.497,1.053,0.477,1.347-0.035
		l1.344-2.346c0.14-0.245,0.402-0.397,0.684-0.397h2.565c0.625,0,1.001-0.692,0.662-1.217l-3.814-5.895
		c-0.269-0.416-0.852-0.485-1.208-0.14c-1.419,1.376-3.02,2.561-4.765,3.521C-466.187-239.924-466.322-239.411-466.073-239.025z
		 M-491.047-243.527l-3.814,5.895c-0.339,0.525,0.037,1.217,0.662,1.217h2.565c0.283,0,0.544,0.151,0.684,0.397l1.344,2.346
		c0.294,0.513,1.027,0.532,1.347,0.035l3.474-5.387c0.249-0.387,0.114-0.9-0.289-1.121c-1.746-0.961-3.346-2.145-4.765-3.521
		C-490.195-244.012-490.777-243.943-491.047-243.527z"/>
	<path id="dashboard-3-icon_7_" style="display:inline;fill:#FFFFFF;" d="M-667.103-252.83c0-13.255-10.745-24-24-24
		c-13.255,0-24,10.745-24,24c0,5.166,1.633,9.951,4.409,13.867h8.715c1.86,3.295,6.03,5.59,10.875,5.59
		c4.846,0,9.015-2.295,10.876-5.59h8.715C-668.735-242.879-667.103-247.664-667.103-252.83z M-676.088-265.703l-4.406,4.406
		c-0.632-0.791-1.351-1.51-2.142-2.142l4.406-4.406C-677.465-267.187-676.745-266.468-676.088-265.703z M-684.949-271.631
		c0.957,0.313,1.896,0.703,2.797,1.161l-2.386,5.757c-0.886-0.49-1.825-0.88-2.798-1.16L-684.949-271.631z M-692.617-272.55
		c0.511-0.039,1.019-0.059,1.515-0.059c0.495,0,1.004,0.02,1.515,0.059v6.23c-0.503-0.056-1.011-0.084-1.515-0.084
		c-0.503,0-1.012,0.028-1.515,0.084V-272.55z M-693.362-251.669l2.259-10.587l2.259,10.587c1.439,0.796,2.414,2.329,2.414,4.09
		c0,2.58-2.092,4.672-4.673,4.672c-2.58,0-4.672-2.092-4.672-4.672C-695.775-249.34-694.801-250.873-693.362-251.669z
		 M-697.332-271.606l2.41,5.748c-0.971,0.284-1.909,0.678-2.793,1.172l-2.41-5.748
		C-699.226-270.895-698.289-271.289-697.332-271.606z M-703.976-267.844l4.406,4.406c-0.791,0.632-1.51,1.351-2.142,2.142
		l-4.406-4.406C-705.46-266.468-704.741-267.187-703.976-267.844z M-709.905-258.981c0.313-0.957,0.703-1.896,1.161-2.798
		l5.758,2.386c-0.49,0.886-0.88,1.825-1.16,2.798L-709.905-258.981z M-678.119-256.799c-0.295-0.966-0.699-1.899-1.205-2.779
		l5.721-2.476c0.47,0.891,0.874,1.824,1.204,2.78L-678.119-256.799z"/>
	
		<rect x="-786.561" y="-299.412" transform="matrix(-1 8.978539e-011 -8.978539e-011 -1 -1530.6997 -491.0346)" style="display:inline;fill:#4D4D4D;" width="42.423" height="107.79"/>
	<g style="display:inline;opacity:0.2;">
		<g>
			<polygon style="fill:#FFFFFF;stroke:#FFFFFF;stroke-miterlimit:10;" points="-767.76,-245.362 -761.182,-251.94 
				-762.061,-252.818 -769.518,-245.362 -762.061,-237.904 -761.182,-238.783 			"/>
		</g>
	</g>
	<rect x="-205.907" y="-298.837" style="display:inline;fill:#EDC607;" width="107.937" height="7.165"/>
	
		<text transform="matrix(1 0 0 1 -169.9217 -208.938)" style="display:inline;fill:#FFFFFF; font-family:'Lato-Bold'; font-size:11.2312px;">Explore</text>
	<g style="display:inline;opacity:0.5;">
		<g>
			<g>
				<g>
					<g>
						<path style="fill:#FFFFFF;" d="M-150.936-243.043c6.649,0,12.059-5.41,12.059-12.059s-5.408-12.059-12.059-12.059
							c-6.651,0-12.063,5.41-12.063,12.059S-157.588-243.043-150.936-243.043z M-158.573-259.486l3.747-2.885
							c3.352,2.892,8.45,5.316,12.613,5.749c0.078,0.471,0.143,0.949,0.143,1.441c0,4.873-3.964,8.835-8.833,8.835
							c-4.875,0-8.838-3.962-8.838-8.835C-159.74-256.75-159.293-258.208-158.573-259.486z"/>
					</g>
					<circle style="fill:#FFFFFF;" cx="-153.772" cy="-253.8" r="1.736"/>
					<circle style="fill:#FFFFFF;" cx="-148.231" cy="-253.8" r="1.736"/>
				</g>
				<path style="fill:#FFFFFF;" d="M-150.938-276.602c-11.874,0-21.5,9.628-21.5,21.5c0,11.875,9.626,21.5,21.5,21.5
					c11.874,0,21.5-9.624,21.5-21.5C-129.438-266.974-139.064-276.602-150.938-276.602z M-150.938-237.37
					c-9.792,0-17.732-7.938-17.732-17.732c0-9.791,7.94-17.732,17.732-17.732c9.792,0,17.732,7.941,17.732,17.732
					C-133.206-245.307-141.146-237.37-150.938-237.37z"/>
			</g>
		</g>
	</g>
	<rect x="-96.592" y="-299.082" style="display:inline;fill:#4D4D4D;" width="42.423" height="107.79"/>
	<g style="display:inline;">
		<g>
			<polygon style="fill:#FFFFFF;stroke:#FFFFFF;stroke-miterlimit:10;" points="-72.97,-245.343 -79.549,-238.765 -78.67,-237.886 
				-71.213,-245.343 -78.67,-252.8 -79.549,-251.921 			"/>
		</g>
	</g>
	<path style="display:inline;fill:#3399CC;" d="M-682.743-191.292l-6.719-6.786c-0.827-0.827-2.167-0.793-2.994,0.033l-6.719,6.753
		h-378.995v50h1024v-50H-682.743z"/>
	<g style="display:inline;">
		<text transform="matrix(1 0 0 1 -1036.6183 -161.0728)" style="fill:#FFFFFF; font-family:'Lato-Bold'; font-size:18.1977px;">Dashboard</text>
	</g>
	<g style="display:inline;">
		<rect x="-1069.97" y="-175.089" style="fill:#FFFFFF;" width="22.27" height="3.735"/>
		<rect x="-1069.97" y="-168.28" style="fill:#FFFFFF;" width="22.27" height="3.735"/>
		<rect x="-1069.97" y="-161.471" style="fill:#FFFFFF;" width="22.27" height="3.735"/>
	</g>
</g>
<g id="Layer_2">
	<path style="fill:#4D4D4D;" d="M0.014,73.457L5.471,0.232l5.544,73.218c0.231,3.037-2.046,5.687-5.083,5.916
		c-3.038,0.23-5.687-2.046-5.917-5.084C-0.006,74.014-0.004,73.718,0.014,73.457z"/>
</g>
</svg>
