<svg xmlns="http://www.w3.org/2000/svg" viewBox="0 0 131.98 32.75"><defs><style>.cls-1{fill:#4577a9;}.cls-1,.cls-2,.cls-3{fill-rule:evenodd;}.cls-2{fill:#4d4e4e;}.cls-3,.cls-5{fill:#fbb03b;}.cls-4{fill:#4e4d4d;}</style></defs><title>stepahead_logo</title><g id="Icons"><path class="cls-1" d="M2.34,9c-.81,1.25,5,3.49,4.81,6.65C7,18.55-.32,22.39,0,24.24c.36,2,16.44-7.89,16.16-11.26C16,11.5,4,6.91,2.34,9"/><path class="cls-2" d="M16.57,0C15.5-.09,16,4.4,13.95,5.34,12,6.21,7.1,2.84,6,3.68s10.62,7.86,12.69,6.54c.9-.58-.24-9.87-2.14-10.21"/><path class="cls-2" d="M27.41,6.37c-.26-.69-2.87,1-4.08,0S22.81,1.38,22,1s-1.65,8.92-.2,9.8c.63.39,6-3.12,5.65-4.4"/><path class="cls-3" d="M20.36,32.71c-1.57.64-2.85-6.35-6.43-6.79-3.29-.4-9.11,7-11.12,6.2-2.22-.84,12.29-16.76,16-15.74,1.63.45,4.24,14.93,1.55,16.33"/><path class="cls-3" d="M18.23,11.8a1.8,1.8,0,1,1-.09,2.55,1.8,1.8,0,0,1,.09-2.55"/><path class="cls-4" d="M116.35,16.29h-.93l-4.81,9.46h1.56l1.22-2.41h5l1.22,2.41h1.58ZM114,22.1l1.86-3.63,1.84,3.63Z"/><path class="cls-4" d="M29.06,22.6a10.36,10.36,0,0,0,2.71,1.54,7.73,7.73,0,0,0,2.76.52,6.16,6.16,0,0,0,1.59-.19,3.84,3.84,0,0,0,1.19-.55,2.66,2.66,0,0,0,.76-.82,2,2,0,0,0,.28-1,1.86,1.86,0,0,0-.72-1.45,3.7,3.7,0,0,0-2.15-.72L34,19.81c-.46,0-.9-.07-1.33-.12a10.54,10.54,0,0,1-1.19-.19,4.73,4.73,0,0,1-1-.35,2.68,2.68,0,0,1-1.75-2.52A2.74,2.74,0,0,1,29,15.31a3.21,3.21,0,0,1,1-1.07,4.81,4.81,0,0,1,1.5-.73,7,7,0,0,1,2-.26,9.22,9.22,0,0,1,3,.51,10.55,10.55,0,0,1,2.81,1.49l-.89,1.27a7.74,7.74,0,0,0-4.94-1.84,4.21,4.21,0,0,0-2.31.56,1.58,1.58,0,0,0-.87,1.33,1.35,1.35,0,0,0,.59,1.09,2.4,2.4,0,0,0,.91.43,9.09,9.09,0,0,0,1.16.21c.42,0,.89.08,1.38.1s1,.06,1.59.13a5.06,5.06,0,0,1,3,1.23,3.19,3.19,0,0,1,1.06,2.41,3.25,3.25,0,0,1-.36,1.51,3.64,3.64,0,0,1-1,1.24,5.26,5.26,0,0,1-1.69.85,7.8,7.8,0,0,1-2.31.31,10.52,10.52,0,0,1-3.38-.52,9.93,9.93,0,0,1-3-1.63Zm15.84-5h-4V16.29h9.43V17.6h-4v8.15H44.89Zm6.94-1.31h8.85v1.36h-7.4V20h4.86v1.36H53.28v3h7.81v1.36H51.83Zm18.28,4a1.72,1.72,0,0,0,1.17-.35,1.21,1.21,0,0,0,.4-1A1.2,1.2,0,0,0,71.3,18a1.6,1.6,0,0,0-1.11-.35H64.7v2.61ZM64.7,25.75H63.24V16.29h6.87A3.36,3.36,0,0,1,72.4,17a2.4,2.4,0,0,1,.8,1.94,2.6,2.6,0,0,1-.77,1.92,2.89,2.89,0,0,1-2.16.78H64.7Z"/><polygon class="cls-4" points="79.74 12.28 86.46 25.75 84.8 25.75 83.15 22.46 79.74 15.76 76.39 22.46 74.78 25.75 73.14 25.75 79.74 12.28"/><polygon class="cls-4" points="89.67 25.75 88.22 25.75 88.22 16.31 89.67 16.31 89.67 19.99 96.37 19.99 96.37 16.31 97.82 16.31 97.82 25.75 96.37 25.75 96.37 21.35 89.67 21.35 89.67 25.75"/><polygon class="cls-4" points="100.06 16.29 108.91 16.29 108.91 17.65 101.51 17.65 101.51 20.04 106.37 20.04 106.37 21.39 101.51 21.39 101.51 24.39 109.32 24.39 109.32 25.75 100.06 25.75 100.06 16.29"/><path class="cls-4" d="M131.63,19.16a4.25,4.25,0,0,0-1-1.51,4.79,4.79,0,0,0-1.62-1,5.94,5.94,0,0,0-2.15-.36h-4.2v9.46h4.2A6.45,6.45,0,0,0,129,25.4a4.65,4.65,0,0,0,1.62-1,4.07,4.07,0,0,0,1-1.48,5.13,5.13,0,0,0,.34-1.89A5,5,0,0,0,131.63,19.16Zm-2.09,4.29a3.6,3.6,0,0,1-2.69.94h-2.76V17.65h2.76a4.11,4.11,0,0,1,1.51.26,3.44,3.44,0,0,1,1.14.72,3.08,3.08,0,0,1,.72,1.06,3.49,3.49,0,0,1,.25,1.34A3.3,3.3,0,0,1,129.54,23.45Z"/><polygon class="cls-5" points="77.02 21.2 76.18 22.88 81.67 22.88 80.83 21.2 77.02 21.2"/></g></svg>